<svg width="1205" height="900" viewBox="0 0 1205 900" fill="none" xmlns="http://www.w3.org/2000/svg">
	<g clip-path="url(#clip0_23_864)">
		<path
			d="M1157.3 753.986C1066.59 899.157 875.375 943.3 730.204 852.59L282.489 572.803C137.318 482.135 93.1612 290.924 183.871 145.753C274.58 0.581869 465.805 -43.5747 610.976 47.0792L1058.68 326.867C1203.85 417.604 1248.01 608.815 1157.3 753.986Z"
			fill="#274D76" />
		<path
			d="M1169.29 657.82C1159.91 668.056 1133.79 640.229 1113.03 647.999C1092.26 655.77 1093.93 605.45 1113.03 614.051C1132.13 622.652 1156.56 592.762 1169.29 603.4C1182.02 614.037 1154.9 634.093 1169.29 657.82Z"
			fill="#EC8C92" />
		<path
			d="M1012.17 618.83C1012.17 618.83 1033.5 575.961 1045.81 579.535C1051.02 581.045 1045.93 586.239 1051.24 587.361C1059.55 589.092 1064.56 567.083 1077.72 568.897C1088.07 570.283 1079.25 585.408 1087.61 587.305C1092.79 588.483 1103.6 580.809 1106.6 585.186C1110.96 591.557 1093.62 611.35 1093.62 611.35L1012.17 618.83Z"
			fill="#EC8C92" />
		<path
			d="M1069.84 679.967C1037.4 679.967 987.415 648.996 987.595 638.816C987.692 633.276 993.814 627.001 1001.75 621.101C1019.93 607.694 1041.96 600.51 1064.55 600.615H1089.48C1093.91 600.612 1098.31 601.482 1102.4 603.176C1106.5 604.87 1110.22 607.355 1113.36 610.488C1116.49 613.622 1118.98 617.342 1120.68 621.438C1122.38 625.533 1123.25 629.923 1123.25 634.356C1123.25 663.443 1098.86 679.967 1069.84 679.967Z"
			fill="#93B4F6" />
		<path
			d="M1049.15 669.094C1049.15 669.094 1099.3 684.884 1093.35 691.186C1087.39 697.488 1041.09 692.599 1049.15 669.094Z"
			fill="#EC8C92" />
		<path
			d="M1030.01 645.285C1027.79 645.288 1025.62 644.632 1023.77 643.401C1021.92 642.17 1020.48 640.419 1019.63 638.369C1018.78 636.319 1018.56 634.063 1018.99 631.886C1019.42 629.708 1020.49 627.708 1022.05 626.138C1023.62 624.567 1025.62 623.497 1027.8 623.063C1029.98 622.629 1032.23 622.851 1034.28 623.699C1036.33 624.548 1038.09 625.986 1039.32 627.831C1040.55 629.677 1041.21 631.846 1041.21 634.066C1041.21 637.039 1040.03 639.891 1037.93 641.994C1035.83 644.098 1032.98 645.281 1030.01 645.285ZM1030.01 625.617C1028.33 625.614 1026.7 626.107 1025.31 627.034C1023.92 627.961 1022.83 629.279 1022.19 630.823C1021.55 632.367 1021.38 634.066 1021.7 635.706C1022.03 637.346 1022.83 638.852 1024.01 640.035C1025.19 641.218 1026.7 642.024 1028.34 642.352C1029.98 642.679 1031.68 642.512 1033.22 641.873C1034.77 641.234 1036.09 640.151 1037.02 638.761C1037.95 637.372 1038.44 635.738 1038.44 634.066C1038.44 631.829 1037.55 629.684 1035.97 628.1C1034.39 626.517 1032.24 625.624 1030.01 625.617Z"
			fill="white" />
		<path
			d="M1053.97 667.03C1053.71 667.028 1053.45 666.953 1053.23 666.812C1053.01 666.672 1052.84 666.472 1052.72 666.236C1052.61 666.001 1052.57 665.738 1052.6 665.479C1052.63 665.22 1052.74 664.975 1052.9 664.772C1057.66 658.958 1060.56 651.84 1061.21 644.351C1061.86 636.863 1060.23 629.352 1056.54 622.804C1056.45 622.646 1056.39 622.471 1056.37 622.29C1056.35 622.109 1056.36 621.925 1056.41 621.749C1056.45 621.573 1056.54 621.408 1056.65 621.263C1056.76 621.119 1056.9 620.997 1057.06 620.907C1057.21 620.816 1057.39 620.757 1057.57 620.733C1057.75 620.71 1057.94 620.722 1058.11 620.77C1058.29 620.817 1058.45 620.899 1058.6 621.011C1058.74 621.122 1058.86 621.261 1058.95 621.419C1062.92 628.453 1064.67 636.521 1063.97 644.565C1063.27 652.61 1060.16 660.257 1055.05 666.504C1054.92 666.667 1054.76 666.799 1054.57 666.89C1054.38 666.981 1054.18 667.029 1053.97 667.03Z"
			fill="black" />
		<path
			d="M1039.81 668.832C1039.61 668.83 1039.41 668.784 1039.23 668.698C1039.05 668.612 1038.89 668.488 1038.76 668.333C1019.67 645.465 988.025 641.712 987.706 641.67C987.524 641.65 987.348 641.594 987.188 641.506C987.027 641.418 986.886 641.299 986.771 641.157C986.54 640.868 986.433 640.5 986.473 640.133C986.514 639.765 986.698 639.429 986.987 639.198C987.275 638.967 987.643 638.86 988.011 638.9C989.396 639.052 1021.09 642.834 1040.88 666.602C1041.11 666.884 1041.22 667.245 1041.19 667.608C1041.15 667.971 1040.98 668.306 1040.7 668.541C1040.45 668.737 1040.13 668.84 1039.81 668.832Z"
			fill="black" />
		<path
			d="M568.772 812.478C562.221 819.625 543.951 800.179 529.435 805.553C514.92 810.927 516.083 775.801 529.435 781.813C542.788 787.824 559.907 766.937 568.772 774.375C577.637 781.813 558.744 795.885 568.772 812.478Z"
			fill="#EC8C92" />
		<path
			d="M458.962 785.22C458.962 785.22 473.866 755.246 482.509 757.74C486.138 758.806 482.592 762.421 486.29 763.211C492.066 764.416 495.612 749.027 504.809 750.302C512.039 751.313 505.875 761.839 511.734 763.169C515.349 764 522.898 758.626 525.003 761.687C528.051 766.147 515.931 779.984 515.931 779.984L458.962 785.22Z"
			fill="#EC8C92" />
		<path
			d="M484.822 820.359C484.822 820.359 519.892 831.44 515.723 835.803C511.554 840.166 479.226 836.787 484.822 820.359Z"
			fill="#EC8C92" />
		<path
			d="M499.282 827.949C476.608 827.949 441.662 806.314 441.787 799.195C441.787 795.344 446.136 790.884 451.676 786.729C464.39 777.356 479.788 772.333 495.584 772.407H513.036C519.281 772.407 525.27 774.888 529.686 779.304C534.102 783.719 536.582 789.709 536.582 795.954C536.624 816.356 519.573 827.949 499.282 827.949Z"
			fill="#F2BDBA" />
		<path
			d="M471.428 802.921C469.785 802.921 468.178 802.433 466.811 801.52C465.445 800.607 464.379 799.309 463.75 797.791C463.121 796.272 462.957 794.601 463.277 792.989C463.598 791.377 464.39 789.896 465.552 788.734C466.714 787.572 468.195 786.78 469.807 786.459C471.419 786.139 473.09 786.303 474.609 786.932C476.127 787.561 477.425 788.627 478.338 789.993C479.251 791.36 479.739 792.967 479.739 794.61C479.739 796.814 478.863 798.928 477.305 800.487C475.746 802.045 473.632 802.921 471.428 802.921ZM471.428 789.167C470.332 789.167 469.261 789.492 468.35 790.101C467.439 790.709 466.729 791.575 466.31 792.587C465.89 793.599 465.781 794.713 465.994 795.788C466.208 796.863 466.736 797.85 467.511 798.625C468.285 799.4 469.273 799.927 470.347 800.141C471.422 800.355 472.536 800.245 473.548 799.826C474.561 799.407 475.426 798.696 476.035 797.785C476.644 796.874 476.969 795.803 476.969 794.707C476.969 793.98 476.825 793.259 476.547 792.587C476.268 791.915 475.86 791.304 475.346 790.79C474.831 790.275 474.221 789.867 473.548 789.589C472.876 789.31 472.156 789.167 471.428 789.167Z"
			fill="white" />
		<path
			d="M488.188 819.334C487.869 819.332 487.56 819.219 487.315 819.016C487.174 818.901 487.057 818.758 486.97 818.598C486.884 818.437 486.83 818.261 486.812 818.08C486.794 817.898 486.812 817.715 486.865 817.54C486.918 817.366 487.005 817.204 487.121 817.063C490.392 813.061 492.381 808.166 492.828 803.017C493.276 797.868 492.16 792.703 489.628 788.198C489.537 788.039 489.478 787.865 489.455 787.684C489.431 787.503 489.444 787.319 489.491 787.143C489.539 786.966 489.621 786.801 489.732 786.657C489.843 786.512 489.982 786.391 490.14 786.3C490.299 786.209 490.473 786.15 490.654 786.127C490.835 786.103 491.019 786.116 491.195 786.163C491.372 786.211 491.537 786.293 491.681 786.404C491.826 786.516 491.947 786.654 492.038 786.813C494.846 791.804 496.083 797.526 495.589 803.231C495.095 808.936 492.892 814.36 489.268 818.794C489.14 818.96 488.977 819.095 488.79 819.188C488.603 819.282 488.397 819.332 488.188 819.334Z"
			fill="black" />
		<path
			d="M478.298 820.581C478.095 820.581 477.894 820.537 477.709 820.45C477.525 820.364 477.362 820.238 477.232 820.082C463.99 804.223 442.037 801.619 441.815 801.591C441.452 801.549 441.12 801.366 440.892 801.08C440.664 800.795 440.557 800.431 440.596 800.068C440.615 799.887 440.67 799.711 440.757 799.551C440.844 799.391 440.961 799.25 441.103 799.135C441.244 799.021 441.407 798.935 441.581 798.884C441.756 798.832 441.939 798.816 442.12 798.835C443.076 798.946 465.417 801.605 479.365 818.309C479.481 818.449 479.569 818.611 479.623 818.785C479.677 818.959 479.697 819.142 479.68 819.323C479.663 819.504 479.611 819.681 479.526 819.842C479.441 820.003 479.325 820.146 479.185 820.262C478.936 820.469 478.622 820.581 478.298 820.581Z"
			fill="black" />
		<path
			d="M2.13294 499.781C7.81179 507.815 23.6295 485.93 36.2061 492.066C48.7827 498.202 47.7716 458.644 36.2061 465.403C24.6406 472.162 9.88942 448.685 2.13294 457.093C-5.62355 465.5 10.8451 481.138 2.13294 499.781Z"
			fill="#274D76" />
		<path
			d="M110.419 463.27C110.419 463.27 94.7121 422.327 85.6259 425.734C81.8031 427.119 85.5428 432.134 81.6369 433.2C75.5563 434.862 71.8166 413.809 62.121 415.582C54.5169 416.967 60.9991 431.344 54.8355 433.158C51.0265 434.28 43.0622 426.939 40.8599 431.136C37.6465 437.217 50.4032 456.068 50.4032 456.068L110.419 463.27Z"
			fill="#274D76" />
		<path
			d="M67.9382 521.666C91.8309 521.666 128.647 492.094 128.522 482.371C128.522 477.122 123.937 471.083 118.092 465.431C104.754 452.55 88.4513 445.874 71.8303 445.874H53.5195C39.7932 445.874 28.5879 460.307 28.5879 478.105C28.5879 505.821 46.594 521.666 67.9382 521.666Z"
			fill="#93B4F6" />
		<path
			d="M83.1743 511.291C83.1743 511.291 46.234 526.361 50.6248 532.4C55.0155 538.439 89.0748 533.729 83.1743 511.291Z"
			fill="#274D76" />
		<path
			d="M97.2882 487.301C92.5374 487.301 88.6592 482.467 88.6592 476.525C88.6592 470.583 92.5374 465.749 97.2882 465.749C102.039 465.749 105.917 470.583 105.917 476.525C105.917 482.467 101.998 487.301 97.2882 487.301ZM97.2882 468.519C94.061 468.519 91.4294 472.107 91.4294 476.525C91.4294 480.943 94.061 484.531 97.2882 484.531C100.515 484.531 103.147 480.93 103.147 476.525C103.147 472.12 100.515 468.519 97.2882 468.519Z"
			fill="white" />
		<path
			d="M79.6283 509.38C79.3929 509.381 79.1614 509.321 78.9554 509.207C78.7494 509.093 78.5758 508.929 78.451 508.729C74.0234 501.455 71.716 493.089 71.7888 484.573C71.7584 478.143 73.0453 471.775 75.57 465.861C75.6362 465.685 75.7375 465.524 75.8678 465.388C75.998 465.253 76.1545 465.145 76.3278 465.072C76.501 464.999 76.6873 464.962 76.8753 464.963C77.0634 464.964 77.2492 465.004 77.4214 465.079C77.5937 465.154 77.7489 465.264 77.8774 465.401C78.006 465.538 78.1053 465.7 78.1692 465.877C78.2331 466.054 78.2604 466.242 78.2493 466.43C78.2383 466.617 78.1891 466.801 78.1048 466.969C75.734 472.534 74.5273 478.525 74.559 484.573C74.4862 492.564 76.6448 500.416 80.7918 507.247C80.8892 507.401 80.9553 507.572 80.9864 507.751C81.0175 507.931 81.013 508.114 80.9731 508.292C80.9332 508.469 80.8587 508.637 80.754 508.786C80.6492 508.935 80.5162 509.061 80.3625 509.159C80.1435 509.3 79.889 509.377 79.6283 509.38Z"
			fill="black" />
		<path
			d="M90.0445 511.084C89.7801 511.076 89.5222 511 89.2966 510.862C89.1421 510.764 89.0086 510.635 88.904 510.485C88.7993 510.335 88.7256 510.165 88.687 509.986C88.6483 509.807 88.6455 509.622 88.6788 509.442C88.7122 509.262 88.7809 509.09 88.8811 508.937C93.3035 502.103 99.0572 496.23 105.799 491.668C112.541 487.106 120.132 483.949 128.121 482.385C128.488 482.331 128.861 482.426 129.159 482.648C129.456 482.87 129.653 483.201 129.706 483.569C129.76 483.936 129.665 484.31 129.443 484.607C129.221 484.904 128.89 485.102 128.522 485.155C120.944 486.717 113.748 489.757 107.346 494.102C100.943 498.446 95.4596 504.01 91.208 510.474C91.0796 510.664 90.9061 510.819 90.703 510.926C90.5 511.032 90.2737 511.086 90.0445 511.084Z"
			fill="black" />
		<path
			d="M373.6 721.436C372.149 720.506 370.528 719.87 368.831 719.567C367.134 719.263 365.394 719.296 363.71 719.666C362.026 720.035 360.432 720.732 359.018 721.718C357.604 722.704 356.398 723.959 355.469 725.411L348.211 736.852C347.031 738.685 345.261 740.061 343.193 740.751C341.125 741.441 338.884 741.404 336.839 740.647L334.374 739.719H334.263C331.092 738.543 328.421 736.314 326.697 733.405C324.972 730.495 324.299 727.082 324.789 723.736L325.842 716.505C326.14 714.614 325.755 712.679 324.755 711.047C323.754 709.414 322.205 708.192 320.385 707.599C319.3 707.268 318.156 707.175 317.032 707.328C315.908 707.48 314.83 707.873 313.872 708.481C312.914 709.089 312.099 709.897 311.483 710.849C310.867 711.801 310.464 712.876 310.301 713.998L309.207 721.478C307.613 731.771 302.91 741.33 295.73 748.875C294.686 749.994 293.715 751.178 292.821 752.421C291.982 753.591 290.788 754.461 289.416 754.899C288.044 755.338 286.567 755.323 285.204 754.857C283.841 754.391 282.664 753.498 281.848 752.311C281.032 751.123 280.621 749.705 280.674 748.265L280.979 737.766C281.036 736.316 281.414 734.897 282.087 733.611L295.051 709.081C297.78 703.931 299.207 698.192 299.207 692.363V662.252C299.207 661.767 299.207 661.296 299.207 660.866C298.947 655.814 299.988 650.779 302.232 646.243C304.475 641.708 307.845 637.825 312.019 634.965L320.883 628.996C322.489 627.946 323.665 626.356 324.199 624.514C324.732 622.671 324.588 620.699 323.792 618.954C323.307 617.931 322.607 617.025 321.74 616.297C320.872 615.57 319.858 615.039 318.766 614.74C317.674 614.442 316.531 614.383 315.414 614.567C314.297 614.752 313.234 615.176 312.296 615.81L295.024 627.43C293.959 628.136 292.765 628.623 291.511 628.866C290.257 629.108 288.967 629.101 287.716 628.843C286.465 628.586 285.278 628.084 284.221 627.366C283.165 626.648 282.261 625.729 281.561 624.66C281.561 624.66 268.499 611.073 264.649 606.114C259.912 600.006 254.039 594.729 247.903 599.798C242.709 604.078 246.809 613.344 250.285 619.106C255.909 628.4 271.422 657.057 271.422 657.057C272.438 658.61 272.982 660.424 272.987 662.279V692.294C272.985 693.849 272.604 695.379 271.879 696.754L258.901 721.298C258.638 721.826 258.214 722.257 257.689 722.528C257.164 722.798 256.567 722.894 255.984 722.801C255.402 722.708 254.864 722.432 254.449 722.012C254.034 721.592 253.764 721.051 253.679 720.467L249.247 693.18C248.766 690.203 247.91 687.299 246.698 684.538C245.378 681.58 245.087 678.265 245.87 675.122C246.653 671.979 248.466 669.189 251.02 667.196L252.695 665.894C253.648 665.155 254.419 664.208 254.95 663.126C255.48 662.043 255.756 660.853 255.757 659.648V640.838C255.785 638.799 255.042 636.825 253.675 635.312C252.308 633.798 250.419 632.858 248.388 632.68C247.32 632.622 246.251 632.781 245.246 633.15C244.242 633.518 243.323 634.086 242.545 634.821C241.768 635.556 241.148 636.441 240.724 637.423C240.299 638.405 240.079 639.464 240.077 640.533V655.769C239.546 656.183 238.927 656.469 238.269 656.608C237.61 656.746 236.928 656.733 236.275 656.569C235.623 656.405 235.016 656.094 234.501 655.66C233.986 655.226 233.577 654.681 233.304 654.066L229.842 646.226C229.401 645.25 229.134 644.205 229.052 643.137L227.307 621.239C226.611 612.28 222.548 603.916 215.935 597.831C215.935 597.831 202.084 584.714 197.209 580.545C186.959 571.667 174.701 581.93 182.416 593.593C186.322 599.479 198.137 617.139 198.137 617.139C199.892 618.77 200.974 620.998 201.17 623.386L202.915 645.257C203.237 649.272 204.229 653.205 205.852 656.891C205.852 657.243 205.77 657.591 205.614 657.906C205.458 658.222 205.23 658.497 204.95 658.71C204.67 658.923 204.344 659.069 203.999 659.135C203.653 659.202 203.296 659.187 202.957 659.094L195.284 656.947C194.25 656.656 193.167 656.581 192.103 656.725C191.039 656.87 190.015 657.231 189.096 657.786C188.177 658.342 187.382 659.08 186.759 659.955C186.137 660.831 185.7 661.824 185.477 662.875C185.097 664.879 185.49 666.954 186.577 668.68C187.664 670.407 189.364 671.658 191.336 672.183L201.96 675.147C206.231 676.348 210.184 678.478 213.537 681.385C216.889 684.292 219.557 687.903 221.351 691.962L222.736 695.064C223.063 695.808 223.295 696.59 223.429 697.391L223.609 698.527C223.735 699.286 223.62 700.066 223.281 700.757C222.941 701.448 222.393 702.015 221.715 702.379C221.036 702.742 220.261 702.884 219.498 702.785C218.734 702.685 218.021 702.349 217.459 701.823L217.39 701.754L178.399 673.609C176.58 671.954 175.481 669.652 175.338 667.196L174.244 642.015C173.552 631.073 149.95 621.544 144.34 619.009C127.234 611.294 123.564 624.619 129.617 628.705L152.166 644.051C153.371 644.869 154.372 645.952 155.092 647.218C155.813 648.483 156.233 649.897 156.321 651.351L157.415 668.845C157.555 670.979 157.879 673.096 158.385 675.174H158.26L131.085 671.753C128.551 671.442 126.18 670.337 124.314 668.595C122.448 666.853 121.181 664.564 120.697 662.058C119.505 656.06 118.619 652.473 116.306 650.575C114.436 649.038 105.225 649.689 104.145 664.011C103.979 666.324 101.153 672.058 95.1557 671.919C92.3855 671.919 86.2911 675.05 85.6401 681.615C85.3989 684.175 86.1043 686.735 87.623 688.81C89.1416 690.885 91.3682 692.332 93.8814 692.876C93.8814 692.876 104.186 694.898 109.644 695.646C111.449 695.863 113.137 696.652 114.461 697.898C115.784 699.145 116.674 700.782 116.999 702.571C117.954 707.973 119.464 715.383 121.154 718.389C122.22 720.384 124.783 720.855 126.874 720.855C128.884 720.859 130.818 720.09 132.276 718.708C133.924 717.143 136.154 712.087 137.927 707.627C138.322 706.606 138.926 705.679 139.701 704.906C140.476 704.134 141.405 703.532 142.427 703.14C143.449 702.749 144.542 702.576 145.635 702.633C146.728 702.69 147.797 702.976 148.772 703.472C157.72 708.07 165.906 713.708 170.269 723.029C171.311 725.259 171.445 727.807 170.643 730.135L166.765 741.479V741.589C165.729 744.639 163.668 747.236 160.933 748.939C158.198 750.641 154.958 751.342 151.764 750.925L140.24 749.415C139.174 749.276 138.091 749.358 137.057 749.654C136.023 749.951 135.061 750.456 134.231 751.139C133.4 751.821 132.718 752.667 132.227 753.624C131.736 754.581 131.446 755.628 131.376 756.701C131.299 758.727 131.99 760.709 133.309 762.249C134.629 763.789 136.48 764.776 138.495 765.011L149.313 766.396C157.623 767.49 169.299 773.322 175.421 779.125C180.667 783.829 187.143 786.942 194.092 788.101C195.68 788.39 197.167 789.082 198.411 790.11C199.655 791.138 200.615 792.468 201.198 793.973L213.345 824.861L228.415 824.487C240.285 822.229 239.634 801.439 241.435 796.522C244.205 789.098 254.925 780.607 258.707 778.363C274.275 769.111 304.415 781.133 304.415 781.133L314.235 767.435C315.453 765.731 317.199 764.478 319.203 763.869C321.207 763.26 323.356 763.331 325.316 764.069L327.795 764.997C335.453 767.825 343.845 767.96 351.59 765.379C359.335 762.798 365.969 757.656 370.4 750.8L377.63 739.622C378.567 738.166 379.206 736.538 379.51 734.833C379.815 733.129 379.779 731.38 379.404 729.69C379.029 727.999 378.323 726.399 377.327 724.983C376.331 723.566 375.064 722.361 373.6 721.436Z"
			fill="#EC8C92" />
		<path
			d="M388.226 898.077L384.555 896.137C385.162 894.833 385.468 893.41 385.452 891.971C385.435 890.533 385.095 889.117 384.458 887.827C381.12 879.821 370.303 872.425 354.762 867.563L354.388 867.439C347.463 865.278 342.587 863.283 341.202 860.61L332.074 843.033C328.736 836.593 320.994 832.437 312.42 832.437C310.324 832.52 308.252 831.97 306.473 830.858C304.694 829.746 303.291 828.125 302.447 826.204C301.881 824.732 300.995 823.404 299.852 822.316C298.71 821.229 297.339 820.409 295.841 819.916C293.415 819.156 290.855 818.924 288.333 819.234C285.81 819.545 283.383 820.391 281.214 821.717C279.684 822.662 278.209 823.693 276.796 824.806C272.266 828.199 266.615 832.437 258.79 832.437L255.673 832.604C247.002 832.604 241.407 836.163 237.418 844.141L228.262 862.508C223.359 872.314 225.603 883.409 234.08 891.456L231.226 894.475C221.364 885.112 218.76 872.148 224.536 860.652L233.706 842.285C238.346 832.978 245.493 828.434 255.562 828.434L258.665 828.268C265.23 828.268 270.05 824.653 274.303 821.467C275.849 820.26 277.463 819.14 279.136 818.116C281.838 816.49 284.858 815.465 287.991 815.108C291.124 814.752 294.297 815.074 297.295 816.052C299.362 816.744 301.25 817.886 302.823 819.395C304.396 820.903 305.616 822.742 306.395 824.778C306.949 825.9 307.821 826.834 308.902 827.464C309.984 828.095 311.226 828.393 312.476 828.324C322.6 828.324 331.77 833.365 335.814 841.163L344.873 858.74C345.191 859.377 347.033 860.832 355.621 863.519L355.995 863.643C378.877 870.804 386.051 880.902 388.281 886.276C389.147 888.124 389.592 890.141 389.582 892.182C389.572 894.223 389.109 896.237 388.226 898.077Z"
			fill="#93B4F6" />
		<path
			d="M216.17 821.924C214.785 817.866 215.298 813.337 217.736 808.434C218.496 805.117 218.632 801.689 218.137 798.323L205.879 788.322C203.097 786.066 200.95 783.126 199.646 779.79L193.344 763.64C193.206 763.294 193.081 762.947 192.97 762.587C192.017 759.959 190.379 757.633 188.227 755.848C186.075 754.064 183.485 752.885 180.726 752.435L174.756 751.285C173.43 751.041 172.23 750.344 171.361 749.313C170.492 748.283 170.008 746.982 169.992 745.634C170.043 744.787 170.275 743.961 170.671 743.211C171.068 742.461 171.62 741.804 172.291 741.285C172.993 740.728 173.807 740.329 174.676 740.114C175.546 739.899 176.452 739.873 177.333 740.038L189.715 742.42C190.973 742.665 192.277 742.426 193.366 741.751C194.455 741.075 195.249 740.013 195.588 738.778L195.657 738.57C195.657 738.473 200.339 728.348 201.489 724.913C202.292 722.489 204.744 715.134 211.184 717.018C215.575 718.292 214.259 723.943 213.303 728.016C213.165 728.611 213.026 729.193 212.916 729.719C211.877 734.733 209.037 744.955 207.86 749.11C207.617 749.928 207.617 750.799 207.86 751.617C210.21 758.968 213.185 766.104 216.752 772.948V773.086C217.014 773.74 217.439 774.317 217.985 774.762L230.617 785.053C230.723 785.126 230.848 785.165 230.977 785.165C231.106 785.165 231.231 785.126 231.337 785.053C231.437 785.003 231.519 784.922 231.571 784.823C231.623 784.724 231.643 784.611 231.628 784.499L228.47 768.834C228.105 767.011 227.984 765.148 228.11 763.294C228.204 761.673 227.725 760.071 226.758 758.767C225.791 757.464 224.397 756.541 222.819 756.161L221.586 755.842C220.724 755.624 219.926 755.206 219.257 754.621C218.588 754.036 218.067 753.301 217.736 752.476L213.885 742.393C213.393 741.118 213.362 739.712 213.797 738.417C214.232 737.122 215.106 736.02 216.267 735.301C216.779 734.927 217.37 734.675 217.994 734.565C218.618 734.455 219.26 734.488 219.869 734.664C221.655 735.26 222.639 737.199 223.137 738.611L226.198 746.451C226.797 746.504 227.399 746.399 227.944 746.146C229.01 745.717 229.481 745.149 229.509 744.983L229.938 738.972C229.964 738.505 229.913 738.037 229.786 737.587L228.041 731.464C226.509 726.147 227.115 720.441 229.73 715.564C230.375 713.778 231.196 712.061 232.182 710.439C234.758 705.937 239.011 705.134 241.878 706.284C244.329 707.267 246.753 710.134 245.534 714.968C245.382 715.564 245.16 716.201 244.939 716.893C243.664 720.619 241.753 726.27 248.097 738.847C248.097 738.985 248.194 739.013 248.249 739.027C248.297 739.05 248.349 739.062 248.401 739.062C248.454 739.062 248.506 739.05 248.554 739.027L252.529 736.146C253.265 735.607 254.111 735.236 255.005 735.059C255.9 734.882 256.823 734.903 257.709 735.121C258.514 735.31 259.267 735.677 259.911 736.195C260.556 736.712 261.077 737.368 261.435 738.113C261.957 739.348 262.034 740.727 261.652 742.013C261.271 743.298 260.455 744.412 259.344 745.163L253.803 749.152C251.755 750.593 250.049 752.467 248.804 754.64C247.56 756.813 246.808 759.233 246.601 761.729L246.462 763.695C246.407 764.063 246.407 764.436 246.462 764.803L246.587 765.454C246.745 766.074 247.058 766.643 247.496 767.108C247.935 767.574 248.485 767.92 249.094 768.114C252.82 769.347 259.621 766.576 267.765 760.496C268.536 759.932 269.439 759.577 270.388 759.465C271.337 759.353 272.298 759.488 273.179 759.858C274.06 760.227 274.83 760.818 275.415 761.573C276.001 762.328 276.381 763.221 276.519 764.166C276.782 766.216 276.976 768.557 277.1 771.092L274.843 771.203C274.718 768.723 274.538 766.452 274.275 764.457C274.207 763.9 273.993 763.372 273.655 762.924C273.317 762.477 272.866 762.126 272.35 761.909C271.824 761.684 271.249 761.603 270.682 761.673C270.115 761.744 269.576 761.964 269.122 762.31C260.244 768.931 252.875 771.757 248.346 770.247C247.38 769.928 246.51 769.372 245.815 768.629C245.121 767.886 244.624 766.98 244.371 765.995L244.218 765.261C244.106 764.695 244.069 764.118 244.108 763.543L244.246 761.562C244.481 758.738 245.331 756 246.739 753.539C248.146 751.079 250.075 748.958 252.39 747.324L257.931 743.335C258.632 742.887 259.154 742.209 259.407 741.417C259.66 740.625 259.628 739.77 259.316 738.999C259.098 738.549 258.783 738.154 258.392 737.842C258.001 737.531 257.545 737.311 257.058 737.199C256.491 737.062 255.901 737.05 255.329 737.165C254.758 737.28 254.218 737.518 253.748 737.863L249.773 740.744C249.452 740.979 249.081 741.136 248.689 741.203C248.298 741.27 247.896 741.246 247.515 741.132C247.164 741.037 246.839 740.862 246.566 740.622C246.292 740.382 246.077 740.083 245.936 739.747C239.218 726.423 241.31 720.245 242.695 716.201C242.917 715.578 243.11 715.01 243.249 714.456C244.108 711.034 242.626 709.095 240.936 708.417C238.955 707.613 235.949 708.278 234.01 711.602C233.096 713.106 232.335 714.698 231.739 716.353L231.656 716.575C229.268 720.951 228.705 726.094 230.091 730.883L231.78 736.922C231.991 737.645 232.07 738.4 232.016 739.152L231.586 745.149C231.503 746.368 230.409 747.518 228.664 748.238C228.013 748.515 225.755 749.304 224.384 748.099L224.176 747.919L220.866 739.443C220.132 737.545 219.481 736.963 218.982 736.811C218.686 736.758 218.382 736.77 218.091 736.844C217.8 736.918 217.527 737.053 217.292 737.24C216.578 737.679 216.04 738.355 215.772 739.149C215.503 739.944 215.522 740.807 215.824 741.589L219.758 751.687C219.957 752.179 220.271 752.617 220.673 752.964C221.075 753.311 221.554 753.557 222.071 753.681L223.304 754C225.39 754.508 227.23 755.737 228.498 757.471C229.765 759.205 230.378 761.331 230.229 763.474C230.108 765.142 230.211 766.819 230.534 768.46L233.706 784.125C233.813 784.698 233.737 785.291 233.488 785.818C233.24 786.345 232.831 786.78 232.321 787.062C231.812 787.376 231.219 787.523 230.623 787.483C230.027 787.444 229.458 787.219 228.996 786.84L216.392 776.563C215.554 775.888 214.901 775.011 214.494 774.014C210.864 767.063 207.842 759.811 205.464 752.338C205.089 751.1 205.089 749.78 205.464 748.543C206.627 744.387 209.467 734.248 210.492 729.304C210.602 728.75 210.741 728.168 210.879 727.545C211.863 723.389 212.486 719.857 210.339 719.234C207.278 718.348 205.201 720.273 203.414 725.675C202.278 729.082 198.053 738.376 197.541 739.526C197.04 741.297 195.893 742.817 194.326 743.784C192.759 744.75 190.886 745.094 189.078 744.747L176.695 742.365C176.131 742.264 175.552 742.284 174.996 742.422C174.44 742.561 173.919 742.815 173.468 743.168C172.914 743.552 172.491 744.095 172.253 744.725C172.016 745.356 171.977 746.044 172.141 746.697C172.305 747.35 172.665 747.938 173.172 748.381C173.679 748.825 174.309 749.104 174.978 749.18L180.934 750.329C184.091 750.858 187.05 752.218 189.507 754.27C191.963 756.323 193.828 758.993 194.909 762.006C195.006 762.31 195.117 762.629 195.242 762.934L201.724 778.973C202.89 781.94 204.797 784.558 207.264 786.577L220.215 797.118V797.547C220.852 801.4 220.711 805.342 219.799 809.14L219.716 809.348C217.528 813.711 217.015 817.658 218.22 821.19L216.17 821.924Z"
			fill="white" />
		<path
			d="M169.59 886.899C168.315 871.815 179.188 843.199 191.128 830.207C195.588 825.345 199.937 822.88 204.037 822.88H225.27C228.202 822.858 231.008 821.684 233.081 819.61C235.155 817.537 236.329 814.731 236.351 811.799C236.35 805.564 237.82 799.417 240.641 793.857C243.462 788.296 247.554 783.48 252.587 779.799C257.619 776.117 263.448 773.675 269.602 772.67C275.755 771.665 282.059 772.125 288.001 774.014L303.846 779.056C311.622 781.471 319.647 783 327.767 783.613C393.988 788.987 421.953 824.127 428.005 844.044L431.454 855.319L427.479 856.538L424.03 845.249C418.268 826.343 391.425 792.948 327.42 787.754C318.997 787.091 310.675 785.479 302.614 782.948L286.768 777.92C281.449 776.23 275.806 775.818 270.298 776.717C264.79 777.617 259.572 779.804 255.067 783.099C250.563 786.394 246.899 790.706 244.374 795.683C241.849 800.66 240.533 806.163 240.534 811.744C240.512 815.778 238.9 819.641 236.047 822.493C233.195 825.346 229.332 826.958 225.298 826.98H204.037C201.184 826.98 197.776 829.057 194.189 832.963C183.108 845.055 172.554 872.577 173.731 886.497L169.59 886.899Z"
			fill="#274D76" />
		<path
			d="M803.378 492.135V489.365H787.255C784.615 489.361 782.084 488.311 780.218 486.444C778.351 484.577 777.3 482.046 777.297 479.406V430.748H735.924V433.518C735.924 434.599 735.633 541.887 735.924 570.78V577.623L740.633 572.664C755.689 556.819 774.263 556.611 792.214 556.417C794.984 556.417 797.893 556.417 800.677 556.251L803.309 556.168V553.522C803.669 529.74 803.378 492.509 803.378 492.135ZM800.608 553.522C780.275 554.229 757.005 551.5 738.653 570.794C738.362 541.583 738.653 433.574 738.653 433.574H774.499V479.434C774.499 481.105 774.828 482.761 775.468 484.305C776.107 485.849 777.045 487.253 778.227 488.435C779.409 489.617 780.812 490.554 782.357 491.194C783.901 491.834 785.556 492.163 787.228 492.163H800.608C800.608 492.163 800.899 529.449 800.608 553.522Z"
			fill="#74BAAB" />
		<path
			d="M829.764 423.02C831.675 415.305 834.016 405.567 836.537 394.847C838.15 387.972 842.036 381.842 847.566 377.45C853.096 373.059 859.947 370.662 867.009 370.649H912.564C921.178 370.644 929.569 367.913 936.535 362.847C943.502 357.781 948.686 350.641 951.347 342.449C950.308 342.449 949.255 342.518 948.133 342.518C920.113 342.518 920.113 327.504 892.107 327.504C864.1 327.504 864.17 342.518 836.094 342.518C808.018 342.518 808.087 327.504 780.067 327.504C752.047 327.504 752.061 342.518 724.04 342.518C696.02 342.518 696.02 327.504 668.014 327.504C640.007 327.504 639.993 342.518 611.987 342.518C583.98 342.518 584.008 327.504 556.015 327.504C528.023 327.504 527.995 342.518 499.989 342.518C471.982 342.518 471.968 327.504 443.962 327.504C415.955 327.504 415.955 342.518 387.935 342.518C359.915 342.518 359.929 327.504 331.922 327.504C303.916 327.504 303.916 342.518 275.895 342.518C268.928 342.705 261.998 341.436 255.548 338.792C254.036 344.552 253.272 350.483 253.277 356.438C253.277 502.717 394.39 617.555 540.682 617.555H645.035C678.096 617.555 709.803 604.421 733.181 581.044C756.559 557.666 769.693 525.958 769.693 492.897C769.693 472.841 787.699 460.625 805.996 454.71C825.623 448.38 825.276 441.026 829.764 423.02Z"
			fill="#74BAAB" />
		<path
			d="M561.847 61.9688C546.965 61.9688 532.694 67.8803 522.171 78.403C511.648 88.9256 505.737 103.197 505.737 118.079V173.731H543.273V118.079C543.276 113.154 545.234 108.431 548.717 104.949C552.199 101.466 556.922 99.5083 561.847 99.5046C565.888 99.5046 569.763 97.8994 572.62 95.0421C575.477 92.1848 577.083 88.3095 577.083 84.2687V77.1354C577.064 73.1066 575.451 69.2491 572.596 66.4068C569.74 63.5644 565.876 61.9687 561.847 61.9688Z"
			fill="#FFF3A1" />
		<path
			d="M275.882 342.518C303.902 342.518 303.902 327.503 331.908 327.503C359.915 327.503 359.929 342.518 387.935 342.518C415.942 342.518 415.955 327.503 443.962 327.503C471.968 327.503 471.968 342.518 499.989 342.518C528.009 342.518 527.995 327.503 556.015 327.503C584.036 327.503 584.008 342.518 612.042 342.518C640.076 342.518 640.049 327.503 668.069 327.503C696.089 327.503 696.075 342.518 724.096 342.518C752.116 342.518 752.116 327.503 780.122 327.503C808.129 327.503 808.143 342.518 836.149 342.518C864.156 342.518 864.17 327.503 892.19 327.503C920.21 327.503 920.196 342.518 948.217 342.518C949.338 342.518 950.391 342.518 951.43 342.448C952.751 338.382 953.424 334.133 953.424 329.858V232.819C953.425 228.079 951.556 223.53 948.224 220.159C944.892 216.788 940.366 214.867 935.626 214.813C921.667 214.761 907.968 218.595 896.065 225.888C884.161 233.18 874.522 243.642 868.228 256.102L864.225 264.052C860.683 271.043 855.273 276.916 848.596 281.018C841.918 285.121 834.235 287.293 826.398 287.294H673.762C670.813 287.294 667.894 286.713 665.17 285.585C662.445 284.457 659.97 282.803 657.886 280.718C655.801 278.633 654.147 276.158 653.018 273.434C651.89 270.71 651.309 267.79 651.309 264.842V256.919C651.309 223.109 639.633 197.056 601.031 179.978C584.318 172.818 566.725 167.922 548.716 165.42C508.923 159.714 470.556 163.44 470.556 203.635V259.786C470.552 267.083 467.651 274.08 462.49 279.238C457.329 284.397 450.331 287.294 443.034 287.294H322.393C307.128 287.296 292.292 292.348 280.198 301.663C268.105 310.978 259.433 324.033 255.535 338.792C261.984 341.435 268.914 342.704 275.882 342.518Z"
			fill="#FFF3A1" />
		<path
			d="M561.182 95.4321C557.677 95.4248 554.319 94.0283 551.842 91.5489C549.365 89.0694 547.972 85.7091 547.968 82.2045V79.0603C548.079 75.6281 549.521 72.3736 551.988 69.9849C554.455 67.5963 557.755 66.2607 561.189 66.2607C564.623 66.2607 567.922 67.5963 570.39 69.9849C572.857 72.3736 574.298 75.6281 574.41 79.0603V82.2045C574.406 85.7115 573.011 89.0739 570.531 91.5538C568.051 94.0336 564.689 95.4284 561.182 95.4321ZM561.182 68.6168C558.413 68.6205 555.759 69.7219 553.801 71.6797C551.844 73.6374 550.742 76.2917 550.738 79.0603V82.2045C550.687 83.6089 550.92 85.0092 551.422 86.3217C551.924 87.6342 552.686 88.8321 553.661 89.8438C554.637 90.8554 555.806 91.66 557.099 92.2096C558.393 92.7592 559.784 93.0424 561.189 93.0424C562.594 93.0424 563.985 92.7592 565.279 92.2096C566.572 91.66 567.741 90.8554 568.717 89.8438C569.692 88.8321 570.454 87.6342 570.956 86.3217C571.458 85.0092 571.691 83.6089 571.639 82.2045V79.0603C571.636 76.2893 570.532 73.633 568.572 71.6748C566.611 69.7167 563.953 68.6168 561.182 68.6168Z"
			fill="#274D76" />
		<path
			d="M844.169 369.638C844.063 369.652 843.956 369.652 843.851 369.638C822.063 363.96 809.071 348.031 809.071 327.033V323.363C809.047 316.461 810.651 309.652 813.753 303.487C816.495 298.053 820.557 293.395 825.568 289.941C825.841 289.787 826.162 289.742 826.467 289.814C826.773 289.887 827.039 290.072 827.214 290.332C827.389 290.593 827.459 290.909 827.41 291.219C827.362 291.529 827.199 291.81 826.953 292.004C822.288 295.218 818.507 299.552 815.955 304.609C813.033 310.427 811.52 316.851 811.537 323.363V327.033C811.537 347.117 823.531 361.757 844.46 367.201C844.745 367.287 844.99 367.472 845.152 367.723C845.314 367.973 845.382 368.273 845.344 368.568C845.305 368.864 845.164 369.136 844.944 369.337C844.723 369.538 844.439 369.655 844.142 369.666L844.169 369.638Z"
			fill="black" />
		<path
			d="M943.327 275.189H909.074C902.008 275.196 895.234 278.006 890.238 283.002C885.242 287.998 882.432 294.772 882.425 301.838V359.249C882.425 359.58 882.556 359.897 882.79 360.131C883.024 360.365 883.341 360.496 883.671 360.496C884.002 360.496 884.319 360.365 884.553 360.131C884.787 359.897 884.918 359.58 884.918 359.249V301.838C884.929 295.436 887.478 289.299 892.006 284.774C896.534 280.248 902.672 277.703 909.074 277.696H943.327C943.503 277.714 943.68 277.695 943.848 277.641C944.016 277.586 944.171 277.497 944.302 277.379C944.434 277.261 944.539 277.116 944.611 276.955C944.682 276.793 944.72 276.619 944.72 276.442C944.72 276.265 944.682 276.091 944.611 275.929C944.539 275.768 944.434 275.624 944.302 275.505C944.171 275.387 944.016 275.298 943.848 275.243C943.68 275.189 943.503 275.17 943.327 275.189Z"
			fill="black" />
		<path d="M617.846 201.363H479.393V204.133H617.846V201.363Z" fill="#274D76" />
		<path d="M634.633 225.921H481.332V228.691H634.633V225.921Z" fill="#274D76" />
		<path d="M656.919 285.909H467.217V288.679H656.919V285.909Z" fill="#274D76" />
		<path
			d="M551.681 508.687C538.641 508.687 525.894 504.821 515.052 497.576C504.21 490.332 495.759 480.035 490.769 467.988C485.779 455.941 484.473 442.684 487.017 429.895C489.561 417.106 495.841 405.358 505.061 396.138C514.281 386.917 526.029 380.638 538.818 378.094C551.608 375.55 564.864 376.856 576.911 381.846C588.958 386.836 599.255 395.286 606.5 406.128C613.744 416.971 617.611 429.718 617.611 442.757C617.589 460.236 610.636 476.993 598.276 489.353C585.916 501.712 569.16 508.665 551.681 508.687ZM551.681 379.597C539.189 379.597 526.977 383.302 516.591 390.242C506.204 397.182 498.109 407.046 493.328 418.587C488.548 430.128 487.297 442.827 489.734 455.079C492.171 467.331 498.187 478.585 507.02 487.418C515.853 496.251 527.107 502.267 539.359 504.704C551.611 507.141 564.31 505.89 575.851 501.109C587.392 496.329 597.256 488.234 604.196 477.847C611.136 467.461 614.841 455.249 614.841 442.757C614.822 426.012 608.162 409.958 596.321 398.117C584.48 386.276 568.426 379.616 551.681 379.597Z"
			fill="white" />
		<path
			d="M551.68 475.14C569.565 475.14 584.064 460.641 584.064 442.756C584.064 424.872 569.565 410.373 551.68 410.373C533.795 410.373 519.297 424.872 519.297 442.756C519.297 460.641 533.795 475.14 551.68 475.14Z"
			fill="#274D76" />
		<path
			d="M604.571 443.818C605.202 439.891 602.529 436.196 598.602 435.565C594.674 434.935 590.979 437.608 590.349 441.535C589.718 445.463 592.391 449.158 596.318 449.788C600.246 450.419 603.941 447.746 604.571 443.818Z"
			fill="white" />
		<path
			d="M509.765 443.825C510.395 439.898 507.722 436.203 503.795 435.572C499.867 434.942 496.172 437.614 495.542 441.542C494.912 445.469 497.584 449.164 501.512 449.795C505.439 450.425 509.134 447.753 509.765 443.825Z"
			fill="white" />
		<path
			d="M406.011 493.547C395.965 493.547 386.145 490.568 377.793 484.987C369.44 479.406 362.93 471.474 359.086 462.193C355.242 452.912 354.236 442.7 356.196 432.847C358.155 422.995 362.993 413.945 370.096 406.841C377.199 399.738 386.25 394.901 396.102 392.941C405.955 390.981 416.167 391.987 425.448 395.831C434.729 399.675 442.661 406.185 448.242 414.538C453.823 422.891 456.802 432.71 456.802 442.756C456.787 456.222 451.431 469.133 441.909 478.655C432.387 488.177 419.477 493.533 406.011 493.547ZM406.011 394.735C396.513 394.735 387.229 397.551 379.332 402.828C371.435 408.105 365.28 415.605 361.645 424.379C358.011 433.154 357.06 442.809 358.913 452.124C360.766 461.44 365.339 469.996 372.055 476.712C378.771 483.428 387.327 488.001 396.642 489.854C405.958 491.707 415.613 490.756 424.388 487.122C433.162 483.487 440.662 477.332 445.939 469.435C451.216 461.538 454.032 452.254 454.032 442.756C454.017 430.025 448.953 417.819 439.951 408.816C430.948 399.814 418.742 394.75 406.011 394.735Z"
			fill="white" />
		<path
			d="M423.536 460.287C433.218 450.605 433.218 434.907 423.536 425.225C413.854 415.542 398.155 415.542 388.473 425.225C378.791 434.907 378.791 450.605 388.473 460.287C398.156 469.969 413.854 469.97 423.536 460.287Z"
			fill="#274D76" />
		<path
			d="M446.539 442.687C446.539 443.783 446.214 444.854 445.605 445.765C444.996 446.676 444.131 447.386 443.119 447.805C442.106 448.225 440.992 448.335 439.918 448.121C438.843 447.907 437.856 447.379 437.081 446.604C436.306 445.83 435.778 444.842 435.564 443.768C435.351 442.693 435.46 441.579 435.88 440.567C436.299 439.554 437.009 438.689 437.92 438.08C438.831 437.471 439.903 437.146 440.998 437.146C442.468 437.146 443.877 437.73 444.916 438.769C445.955 439.808 446.539 441.217 446.539 442.687Z"
			fill="white" />
		<path
			d="M373.974 442.687C373.974 443.783 373.649 444.854 373.04 445.765C372.431 446.676 371.566 447.386 370.554 447.805C369.541 448.225 368.427 448.335 367.353 448.121C366.278 447.907 365.291 447.379 364.516 446.604C363.741 445.83 363.213 444.842 363 443.768C362.786 442.693 362.896 441.579 363.315 440.567C363.734 439.554 364.444 438.689 365.355 438.08C366.266 437.471 367.338 437.146 368.433 437.146C369.903 437.146 371.312 437.73 372.351 438.769C373.39 439.808 373.974 441.217 373.974 442.687Z"
			fill="white" />
		<path
			d="M694.317 493.547C684.271 493.547 674.451 490.568 666.098 484.987C657.746 479.406 651.236 471.474 647.392 462.193C643.547 452.912 642.542 442.7 644.501 432.847C646.461 422.995 651.298 413.945 658.402 406.841C665.505 399.738 674.555 394.901 684.408 392.941C694.26 390.981 704.473 391.987 713.753 395.831C723.034 399.675 730.967 406.185 736.548 414.538C742.129 422.891 745.108 432.71 745.108 442.756C745.093 456.222 739.737 469.133 730.215 478.655C720.693 488.177 707.783 493.533 694.317 493.547ZM694.317 394.735C684.819 394.735 675.534 397.551 667.637 402.828C659.74 408.105 653.585 415.605 649.951 424.379C646.316 433.154 645.365 442.809 647.218 452.124C649.071 461.44 653.645 469.996 660.361 476.712C667.076 483.428 675.633 488.001 684.948 489.854C694.263 491.707 703.919 490.756 712.693 487.122C721.468 483.487 728.968 477.332 734.244 469.435C739.521 461.538 742.338 452.254 742.338 442.756C742.323 430.025 737.259 417.819 728.256 408.816C719.254 399.814 707.048 394.75 694.317 394.735Z"
			fill="white" />
		<path
			d="M711.847 460.281C721.53 450.599 721.53 434.901 711.847 425.219C702.165 415.536 686.467 415.536 676.785 425.219C667.102 434.901 667.102 450.599 676.785 460.281C686.467 469.964 702.165 469.964 711.847 460.281Z"
			fill="#274D76" />
		<path
			d="M734.844 442.687C734.844 443.783 734.519 444.854 733.911 445.765C733.302 446.676 732.437 447.386 731.424 447.805C730.412 448.225 729.298 448.335 728.223 448.121C727.148 447.907 726.161 447.379 725.386 446.604C724.612 445.83 724.084 444.842 723.87 443.768C723.656 442.693 723.766 441.579 724.185 440.567C724.605 439.554 725.315 438.689 726.226 438.08C727.137 437.471 728.208 437.146 729.304 437.146C730.774 437.146 732.183 437.73 733.222 438.769C734.261 439.808 734.844 441.217 734.844 442.687Z"
			fill="white" />
		<path
			d="M662.279 442.687C662.279 443.783 661.955 444.854 661.346 445.765C660.737 446.676 659.872 447.386 658.859 447.805C657.847 448.225 656.733 448.335 655.658 448.121C654.583 447.907 653.596 447.379 652.821 446.604C652.047 445.83 651.519 444.842 651.305 443.768C651.091 442.693 651.201 441.579 651.62 440.567C652.04 439.554 652.75 438.689 653.661 438.08C654.572 437.471 655.643 437.146 656.739 437.146C658.209 437.146 659.618 437.73 660.657 438.769C661.696 439.808 662.279 441.217 662.279 442.687Z"
			fill="white" />
		<path d="M339.042 307.019H336.271V503.078H339.042V307.019Z" fill="white" />
		<path
			d="M775.607 734.747C774.994 734.745 774.383 734.661 773.792 734.498L542.455 670.368C540.684 669.876 539.182 668.7 538.278 667.1C537.374 665.5 537.143 663.607 537.635 661.836C538.127 660.065 539.303 658.563 540.903 657.659C542.503 656.755 544.397 656.524 546.167 657.016L777.477 721.173C779.096 721.62 780.497 722.639 781.421 724.042C782.344 725.445 782.726 727.136 782.496 728.799C782.265 730.463 781.438 731.986 780.168 733.086C778.898 734.185 777.272 734.785 775.593 734.775L775.607 734.747Z"
			fill="#93B4F6" />
		<path
			d="M543.398 603.662C536.9 603.662 530.548 605.589 525.145 609.199C519.742 612.809 515.531 617.94 513.044 623.944C510.558 629.947 509.907 636.553 511.175 642.926C512.442 649.299 515.571 655.153 520.166 659.748C524.761 664.343 530.615 667.472 536.988 668.739C543.361 670.007 549.967 669.356 555.971 666.87C561.974 664.383 567.105 660.172 570.715 654.769C574.325 649.366 576.252 643.014 576.252 636.516C576.252 627.803 572.791 619.446 566.629 613.285C560.468 607.123 552.111 603.662 543.398 603.662ZM543.398 651.032C540.527 651.032 537.72 650.181 535.333 648.586C532.946 646.991 531.086 644.724 529.987 642.071C528.888 639.419 528.601 636.5 529.161 633.684C529.721 630.869 531.104 628.282 533.134 626.252C535.164 624.222 537.75 622.84 540.566 622.28C543.382 621.719 546.3 622.007 548.953 623.106C551.605 624.204 553.872 626.065 555.467 628.452C557.062 630.839 557.913 633.645 557.913 636.516C557.899 640.357 556.363 644.034 553.642 646.745C550.922 649.455 547.238 650.977 543.398 650.977V651.032Z"
			fill="#274D76" />
		<path
			d="M543.397 600.893C536.352 600.893 529.464 602.982 523.606 606.896C517.747 610.811 513.181 616.375 510.485 622.884C507.788 629.394 507.083 636.556 508.457 643.467C509.832 650.377 513.225 656.725 518.207 661.707C523.189 666.689 529.537 670.082 536.447 671.457C543.358 672.832 550.521 672.126 557.03 669.43C563.54 666.733 569.104 662.167 573.018 656.309C576.932 650.45 579.022 643.563 579.022 636.517C579.011 627.072 575.254 618.017 568.576 611.339C561.897 604.66 552.842 600.904 543.397 600.893ZM543.397 669.371C536.899 669.371 530.547 667.444 525.145 663.834C519.742 660.224 515.531 655.093 513.044 649.09C510.557 643.086 509.907 636.48 511.174 630.107C512.442 623.734 515.571 617.88 520.166 613.285C524.761 608.691 530.615 605.562 536.988 604.294C543.361 603.026 549.967 603.677 555.97 606.164C561.973 608.65 567.105 612.861 570.715 618.264C574.325 623.667 576.252 630.019 576.252 636.517C576.252 645.23 572.79 653.587 566.629 659.748C560.467 665.91 552.111 669.371 543.397 669.371Z"
			fill="#74BAAB" />
		<path
			d="M543.397 622.001C540.526 622.001 537.72 622.852 535.333 624.447C532.945 626.042 531.085 628.309 529.986 630.962C528.888 633.614 528.6 636.533 529.16 639.349C529.72 642.164 531.103 644.751 533.133 646.781C535.163 648.811 537.749 650.193 540.565 650.753C543.381 651.314 546.3 651.026 548.952 649.927C551.604 648.829 553.871 646.968 555.466 644.581C557.061 642.194 557.913 639.388 557.913 636.517C557.913 632.667 556.383 628.975 553.661 626.253C550.939 623.53 547.247 622.001 543.397 622.001ZM543.397 648.318C541.074 648.318 538.803 647.629 536.872 646.338C534.94 645.048 533.435 643.213 532.546 641.067C531.657 638.921 531.424 636.559 531.877 634.281C532.33 632.002 533.449 629.909 535.092 628.267C536.734 626.624 538.827 625.505 541.106 625.052C543.384 624.599 545.746 624.832 547.892 625.721C550.038 626.61 551.872 628.115 553.163 630.047C554.454 631.978 555.143 634.249 555.143 636.572C555.11 639.667 553.858 642.624 551.66 644.802C549.461 646.98 546.492 648.203 543.397 648.207V648.318Z"
			fill="#74BAAB" />
		<path
			d="M779.389 695.743C773.705 695.743 768.148 697.429 763.421 700.587C758.695 703.745 755.011 708.234 752.836 713.485C750.661 718.737 750.092 724.516 751.201 730.091C752.31 735.666 755.047 740.787 759.066 744.806C763.086 748.826 768.207 751.563 773.782 752.672C779.357 753.781 785.136 753.212 790.388 751.036C795.639 748.861 800.128 745.177 803.286 740.451C806.444 735.725 808.13 730.168 808.13 724.484C808.13 716.861 805.101 709.551 799.712 704.161C794.322 698.771 787.012 695.743 779.389 695.743ZM779.389 737.171C776.876 737.171 774.42 736.426 772.331 735.03C770.242 733.633 768.614 731.649 767.653 729.327C766.692 727.006 766.442 724.451 766.933 721.987C767.424 719.523 768.635 717.26 770.413 715.484C772.19 713.708 774.455 712.5 776.919 712.011C779.384 711.522 781.939 711.776 784.259 712.739C786.58 713.703 788.562 715.333 789.956 717.424C791.35 719.514 792.093 721.971 792.09 724.484C792.087 727.85 790.747 731.077 788.365 733.456C785.984 735.835 782.755 737.171 779.389 737.171Z"
			fill="#274D76" />
		<path
			d="M779.389 692.973C773.156 692.973 767.064 694.821 761.882 698.283C756.7 701.746 752.661 706.667 750.277 712.425C747.892 718.183 747.268 724.518 748.483 730.631C749.699 736.743 752.7 742.358 757.107 746.765C761.514 751.172 767.129 754.173 773.241 755.389C779.354 756.604 785.689 755.98 791.447 753.595C797.205 751.211 802.126 747.172 805.589 741.99C809.051 736.808 810.899 730.716 810.899 724.483C810.892 716.128 807.57 708.118 801.662 702.21C795.754 696.302 787.744 692.98 779.389 692.973ZM779.389 753.224C773.704 753.224 768.147 751.538 763.421 748.38C758.695 745.222 755.011 740.734 752.836 735.482C750.661 730.23 750.091 724.451 751.2 718.876C752.309 713.301 755.047 708.18 759.066 704.161C763.085 700.141 768.206 697.404 773.782 696.295C779.357 695.186 785.136 695.755 790.387 697.931C795.639 700.106 800.127 703.79 803.285 708.516C806.444 713.242 808.129 718.799 808.129 724.483C808.129 732.106 805.101 739.416 799.711 744.806C794.321 750.196 787.011 753.224 779.389 753.224Z"
			fill="#93B4F6" />
		<path
			d="M779.389 711.782C776.877 711.782 774.421 712.527 772.332 713.923C770.244 715.318 768.616 717.302 767.654 719.623C766.693 721.944 766.441 724.497 766.932 726.961C767.422 729.425 768.631 731.688 770.408 733.465C772.184 735.241 774.447 736.451 776.911 736.941C779.375 737.431 781.929 737.179 784.249 736.218C786.57 735.257 788.554 733.629 789.949 731.54C791.345 729.451 792.09 726.996 792.09 724.483C792.09 721.115 790.752 717.884 788.37 715.502C785.988 713.12 782.757 711.782 779.389 711.782ZM779.389 734.401C777.424 734.401 775.503 733.818 773.87 732.726C772.237 731.634 770.964 730.082 770.212 728.267C769.461 726.451 769.265 724.454 769.65 722.527C770.034 720.6 770.981 718.831 772.371 717.442C773.762 716.054 775.533 715.109 777.46 714.728C779.387 714.346 781.384 714.545 783.199 715.298C785.013 716.052 786.563 717.327 787.653 718.962C788.742 720.597 789.323 722.519 789.32 724.483C789.316 727.115 788.268 729.637 786.406 731.497C784.544 733.356 782.02 734.401 779.389 734.401Z"
			fill="#93B4F6" />
		<path
			d="M812.284 748.183C812.284 748.183 792.616 781.799 789.804 806.564L793.807 808.905C808.378 800.47 833.67 760.69 833.67 760.69L812.284 748.183Z"
			fill="#274D76" />
		<path
			d="M835.069 758.293L813.683 745.827L811.287 744.442L809.902 746.839C809.085 748.224 789.915 781.258 787.062 806.314L786.868 808.101L788.419 809.015L790.234 810.082L792.422 811.356L793.807 812.173L795.193 811.356C810.179 802.671 834.958 763.875 836.011 762.227L837.549 759.803L835.069 758.293ZM793.807 808.877L789.805 806.536C792.575 781.771 812.285 748.154 812.285 748.154L833.67 760.62C833.67 760.62 808.392 800.469 793.807 808.877Z"
			fill="#93B4F6" />
		<path
			d="M793.655 804.583C792.173 803.715 790.467 803.305 788.752 803.407C787.038 803.508 785.392 804.116 784.022 805.152C782.653 806.189 781.622 807.609 781.06 809.232C780.497 810.855 780.428 812.608 780.862 814.27C781.296 815.932 782.213 817.428 783.497 818.568C784.781 819.709 786.375 820.444 788.076 820.679C789.777 820.914 791.51 820.639 793.056 819.89C794.601 819.14 795.889 817.949 796.758 816.467C797.919 814.479 798.244 812.111 797.662 809.884C797.081 807.656 795.64 805.75 793.655 804.583Z"
			fill="#274D76" />
		<path
			d="M800.345 809.182C799.7 806.734 798.263 804.569 796.259 803.023C794.255 801.477 791.795 800.638 789.264 800.636C787.513 800.633 785.784 801.033 784.211 801.804C782.638 802.576 781.264 803.698 780.193 805.084C779.123 806.471 778.385 808.084 778.036 809.801C777.688 811.518 777.738 813.291 778.184 814.985C778.555 816.45 779.214 817.827 780.12 819.037C781.027 820.246 782.164 821.264 783.465 822.032C784.767 822.801 786.208 823.303 787.705 823.512C789.202 823.721 790.726 823.631 792.188 823.248C793.65 822.865 795.022 822.197 796.225 821.281C797.427 820.365 798.437 819.221 799.195 817.913C799.953 816.606 800.445 815.161 800.643 813.662C800.84 812.164 800.739 810.641 800.345 809.182ZM796.758 816.467C795.888 817.94 794.603 819.122 793.063 819.864C791.523 820.607 789.797 820.877 788.104 820.64C786.411 820.403 784.825 819.67 783.548 818.534C782.271 817.397 781.359 815.908 780.927 814.253C780.495 812.599 780.563 810.854 781.121 809.238C781.68 807.622 782.704 806.208 784.066 805.173C785.427 804.139 787.065 803.531 788.771 803.426C790.478 803.321 792.177 803.724 793.655 804.583C794.642 805.157 795.505 805.921 796.196 806.83C796.886 807.739 797.391 808.775 797.679 809.88C797.967 810.984 798.034 812.135 797.876 813.266C797.718 814.396 797.338 815.484 796.758 816.467Z"
			fill="#93B4F6" />
		<path
			d="M837.784 753.667C837.784 753.667 860.042 712.114 860.25 695.271L856.247 692.931C836.053 707.529 816.384 741.159 816.384 741.159L837.784 753.667Z"
			fill="#274D76" />
		<path
			d="M861.649 692.889L859.322 691.504L857.646 690.521L856.095 689.606L854.627 690.659C834.183 705.438 814.805 738.334 813.988 739.733L812.603 742.115L814.985 743.5L836.385 755.966L838.864 757.351L840.249 754.816C841.177 753.099 862.826 712.474 863.048 695.161V693.554L861.649 692.889ZM837.784 753.667L816.384 741.201C816.384 741.201 836.053 707.571 856.247 692.972L860.25 695.313C860.042 712.114 837.784 753.667 837.784 753.667Z"
			fill="#93B4F6" />
		<path
			d="M856.414 697.253C857.897 698.119 859.603 698.526 861.318 698.423C863.032 698.319 864.677 697.709 866.045 696.671C867.413 695.633 868.442 694.212 869.003 692.589C869.563 690.965 869.63 689.212 869.194 687.551C868.758 685.89 867.84 684.395 866.555 683.256C865.27 682.116 863.676 681.384 861.975 681.15C860.273 680.916 858.541 681.193 856.996 681.944C855.452 682.695 854.165 683.887 853.298 685.369C852.138 687.359 851.815 689.727 852.399 691.955C852.983 694.183 854.427 696.088 856.414 697.253Z"
			fill="#274D76" />
		<path
			d="M866.567 679.87C864.607 678.733 862.355 678.203 860.095 678.346C857.834 678.489 855.667 679.3 853.867 680.674C852.066 682.049 850.714 683.927 849.981 686.07C849.248 688.213 849.166 690.525 849.747 692.715C850.328 694.904 851.545 696.872 853.244 698.37C854.943 699.868 857.048 700.829 859.292 701.13C861.537 701.432 863.821 701.062 865.856 700.066C867.89 699.07 869.583 697.493 870.722 695.535C872.242 692.905 872.658 689.78 871.88 686.844C871.101 683.908 869.19 681.4 866.567 679.87ZM868.284 694.15C867.417 695.637 866.129 696.834 864.582 697.588C863.035 698.343 861.298 698.621 859.593 698.388C857.887 698.156 856.289 697.422 855.001 696.281C853.712 695.139 852.792 693.641 852.355 691.976C851.918 690.311 851.986 688.554 852.548 686.927C853.111 685.301 854.143 683.877 855.515 682.838C856.887 681.798 858.536 681.189 860.255 681.087C861.973 680.985 863.683 681.395 865.168 682.266C867.157 683.428 868.604 685.332 869.191 687.56C869.777 689.788 869.456 692.158 868.298 694.15H868.284Z"
			fill="#93B4F6" />
		<path
			d="M823.628 522.164C823.628 495.293 830.72 473.52 839.46 473.52H805.483C796.744 473.52 789.652 495.293 789.652 522.164C789.652 549.034 796.744 570.794 805.483 570.794H839.46C830.747 570.794 823.628 549.021 823.628 522.164Z"
			fill="#74BAAB" />
		<path
			d="M832.216 511.665C833.601 511.665 838.559 513.396 841.108 519.892C845.914 516.222 846.648 504.047 846.648 502.121C846.482 491.553 843.075 483.686 839.64 483.852C835.581 484.032 831.62 494.684 832.146 509.559C832.146 510.321 832.188 511.083 832.216 511.665ZM832.354 515.529C829.916 522.898 831.066 552.234 835.817 559.062C837.202 560.96 839.183 561.403 840.263 559.284C843.033 553.827 844.114 540.571 842.548 528.881C841.108 518.147 834.072 515.446 832.354 515.529ZM845.36 516.762C844.944 518.589 844.105 520.292 842.909 521.734C847.784 537.178 844.557 545.946 844.557 545.946C844.557 545.946 850.596 544.976 850.665 532.926C850.72 524.2 848.809 518.562 845.36 516.762Z"
			fill="#93B4F6" />
		<path
			d="M789.527 684.316C788.791 684.175 788.035 684.185 787.303 684.346C786.571 684.506 785.88 684.813 785.27 685.248C784.66 685.683 784.145 686.237 783.755 686.877C783.366 687.516 783.11 688.228 783.003 688.97L782.352 693.527C782.324 693.762 782.21 693.979 782.033 694.136C781.856 694.294 781.627 694.381 781.39 694.381C781.153 694.381 780.924 694.294 780.746 694.136C780.569 693.979 780.455 693.762 780.427 693.527L779.721 688.901C779.595 688.081 779.286 687.301 778.818 686.617C778.35 685.932 777.734 685.362 777.017 684.947C776.299 684.533 775.497 684.284 774.671 684.22C773.844 684.157 773.014 684.279 772.241 684.579C771.049 685.063 770.058 685.938 769.431 687.061C768.803 688.185 768.578 689.488 768.792 690.757L769.333 694.233C769.455 695.003 769.314 695.792 768.932 696.472C768.55 697.152 767.95 697.683 767.229 697.979C766.508 698.275 765.708 698.32 764.959 698.105C764.209 697.89 763.554 697.429 763.1 696.796L760.579 693.305C759.837 692.246 758.753 691.475 757.509 691.122C756.265 690.769 754.938 690.855 753.75 691.366C752.996 691.7 752.326 692.199 751.79 692.825C751.253 693.452 750.863 694.19 750.648 694.987C750.433 695.783 750.398 696.617 750.547 697.429C750.695 698.24 751.023 699.008 751.507 699.677L769.111 723.999C769.625 724.712 770.302 725.292 771.084 725.692C771.867 726.091 772.734 726.299 773.612 726.298C774.734 726.298 784.555 721.007 784.804 721.007C787.574 721.007 789.638 721.132 790.026 718.361L793.932 690.826C794.158 689.385 793.829 687.911 793.012 686.703C792.194 685.495 790.949 684.642 789.527 684.316ZM770.995 727.78C768.598 729.678 770.26 729.013 768.488 731.007C768.488 731.09 776.798 744.276 768.266 755.468C765.952 758.365 763.137 760.823 759.956 762.726C754.928 766.105 749.221 769.928 745.481 780.496C737.06 804.32 754.581 824.819 755.329 825.761C755.784 826.377 756.362 826.893 757.027 827.274C757.691 827.656 758.428 827.895 759.189 827.978C759.951 828.061 760.722 827.984 761.452 827.754C762.183 827.523 762.858 827.144 763.434 826.64C764.011 826.135 764.477 825.516 764.802 824.823C765.128 824.129 765.305 823.375 765.325 822.609C765.344 821.844 765.204 821.082 764.914 820.373C764.624 819.664 764.19 819.022 763.64 818.489C763.501 818.337 749.581 802.007 755.869 784.195C758.39 777.089 761.618 774.928 766.078 771.937C770.286 769.384 774.006 766.101 777.061 762.241C787.99 747.864 782.934 734.041 778.751 728.75C777.849 727.595 776.527 726.845 775.073 726.664C773.619 726.482 772.153 726.883 770.995 727.78Z"
			fill="#93B4F6" />
		<path
			d="M547.248 629.646C545.72 629.448 544.17 629.765 542.843 630.547C542.401 630.302 541.937 630.098 541.458 629.937C539.718 629.377 537.828 629.527 536.199 630.355C534.569 631.182 533.333 632.621 532.76 634.356L521.845 667.21C521.267 668.953 521.404 670.854 522.228 672.496C523.051 674.138 524.493 675.385 526.236 675.964C526.94 676.204 527.68 676.326 528.424 676.324C529.62 676.32 530.795 676.007 531.833 675.415C532.872 674.823 533.74 673.971 534.352 672.944L533.868 676.407C533.745 677.308 533.801 678.225 534.032 679.105C534.263 679.984 534.666 680.81 535.216 681.534C535.767 682.258 536.455 682.867 537.24 683.325C538.026 683.783 538.895 684.082 539.796 684.205C540.11 684.225 540.424 684.225 540.738 684.205C542.422 684.221 544.055 683.622 545.33 682.52C546.605 681.419 547.434 679.89 547.663 678.221L553.204 637.431C553.324 636.528 553.266 635.611 553.032 634.731C552.798 633.852 552.393 633.027 551.839 632.304C551.286 631.581 550.596 630.974 549.808 630.518C549.02 630.062 548.15 629.766 547.248 629.646Z"
			fill="#93B4F6" />
		<path
			d="M1010.02 841.565C1023.44 766.23 964.187 703.139 957.732 701.214L951.43 707.696C956.97 715.009 977.317 755.385 972.456 796.106C972.366 796.856 972.115 797.577 971.72 798.22C971.325 798.863 970.795 799.412 970.167 799.831C969.539 800.25 968.828 800.527 968.083 800.645C967.337 800.762 966.575 800.716 965.849 800.511C915.058 786.286 844.155 747.032 844.155 747.032L841.634 750.98L792.187 723.001C791.256 722.476 790.231 722.138 789.171 722.009C788.11 721.879 787.034 721.96 786.005 722.246C784.975 722.532 784.012 723.018 783.17 723.677C782.328 724.335 781.625 725.153 781.099 726.083C780.573 727.013 780.236 728.038 780.106 729.099C779.977 730.16 780.057 731.236 780.344 732.265C780.63 733.295 781.116 734.258 781.774 735.1C782.433 735.941 783.251 736.645 784.181 737.171L833.725 765.205L831.772 768.114C831.772 768.114 908.395 810.553 937.039 839.612C937.756 840.343 938.294 841.229 938.611 842.203C938.928 843.176 939.015 844.209 938.866 845.222C938.717 846.235 938.336 847.199 937.752 848.04C937.169 848.881 936.398 849.575 935.502 850.069C901.983 868.629 853.38 879.835 844.778 877.909L841.634 886.441C846.288 891.22 934.643 904.946 996.764 863.061C1000.45 860.548 1004.77 859.109 1009.23 858.906C1010.78 858.906 1012.47 856.011 1011.79 854.571C1009.87 850.524 1009.25 845.979 1010.02 841.565Z"
			fill="#274D76" />
		<path
			d="M1012.75 842.118C1019.96 801.632 1006.4 765.648 993.759 742.6C980.143 717.765 963.204 700.022 958.522 698.623L956.915 698.152L955.738 699.357L949.45 705.84L947.788 707.557L949.173 709.455C955.046 717.142 974.326 756.645 969.658 795.856C969.584 796.45 969.295 796.996 968.846 797.391C968.397 797.787 967.819 798.005 967.22 798.003C966.992 798.003 966.764 797.975 966.542 797.92C916.679 783.945 846.136 745.065 845.43 744.677L843.172 743.431L841.787 745.592L840.637 747.351L793.447 720.66C791.566 719.589 789.408 719.103 787.248 719.264C785.089 719.424 783.027 720.224 781.324 721.561C779.621 722.899 778.355 724.713 777.687 726.772C777.019 728.832 776.98 731.044 777.574 733.126C777.951 734.509 778.599 735.803 779.482 736.932C780.364 738.062 781.462 739.005 782.713 739.705L829.667 766.257L829.377 766.686L827.701 769.193L830.332 770.662C830.526 770.759 849.724 781.41 872.12 795.455C901.678 813.973 923.369 829.957 934.934 841.689C935.352 842.108 935.667 842.62 935.852 843.183C936.037 843.746 936.088 844.344 936.001 844.93C935.903 845.51 935.676 846.061 935.335 846.541C934.995 847.021 934.55 847.417 934.034 847.7C903.465 864.626 859.849 875.402 847.23 875.402C846.571 875.421 845.912 875.37 845.264 875.25L842.881 874.723L842.05 877.009L838.948 885.499L838.352 887.134L839.571 888.38C843.117 892.023 865.569 895.223 887.606 895.223C912.371 895.223 959.63 891.344 998.163 865.346C1001.41 863.115 1005.21 861.829 1009.15 861.634C1010.06 861.534 1010.93 861.213 1011.69 860.698C1012.45 860.184 1013.07 859.493 1013.5 858.684C1014.03 857.912 1014.36 857.023 1014.46 856.093C1014.57 855.164 1014.45 854.222 1014.11 853.351C1012.51 849.834 1012.04 845.913 1012.75 842.118ZM1011.64 854.584C1012.32 855.969 1010.63 858.85 1009.08 858.919C1004.62 859.122 1000.3 860.561 996.612 863.075C962.096 886.372 919.463 892.466 887.606 892.466C862.175 892.466 843.615 888.574 841.551 886.455L844.654 877.964C845.502 878.133 846.366 878.208 847.23 878.186C860.43 878.186 904.365 867.299 935.377 850.124C936.274 849.63 937.044 848.936 937.628 848.095C938.212 847.254 938.593 846.29 938.742 845.277C938.891 844.264 938.803 843.231 938.486 842.258C938.169 841.284 937.631 840.397 936.915 839.667C908.313 810.58 831.648 768.168 831.648 768.168L833.601 765.26L784.057 737.226C782.178 736.164 780.797 734.399 780.219 732.32C779.641 730.241 779.913 728.017 780.975 726.138C782.036 724.259 783.801 722.879 785.88 722.301C787.96 721.723 790.183 721.995 792.062 723.056L841.51 751.035L844.086 747.087C844.086 747.087 915.044 786.285 965.849 800.566C966.3 800.693 966.766 800.759 967.234 800.76C968.511 800.762 969.745 800.294 970.7 799.446C971.655 798.599 972.265 797.429 972.415 796.161C977.276 755.44 956.985 715.064 951.389 707.751L957.691 701.269C964.146 703.194 1023.4 766.285 1009.98 841.62C1009.2 845.978 1009.78 850.469 1011.64 854.487V854.584Z"
			fill="#93B4F6" />
		<path
			d="M816.674 732.36L804.634 752.949C803.313 755.207 804.073 758.109 806.331 759.429L826.92 771.47C829.178 772.791 832.08 772.031 833.401 769.772L845.441 749.184C846.762 746.925 846.002 744.024 843.744 742.703L823.155 730.662C820.897 729.342 817.995 730.102 816.674 732.36Z"
			fill="#274D76" />
		<path
			d="M848.56 744.803C848.058 742.877 846.813 741.228 845.098 740.219L824.501 728.182C823.351 727.508 822.04 727.154 820.706 727.157C819.397 727.161 818.11 727.504 816.974 728.155C815.837 728.806 814.89 729.741 814.224 730.869L802.188 751.466C801.689 752.317 801.362 753.258 801.227 754.235C801.092 755.212 801.151 756.207 801.401 757.161C801.65 758.116 802.086 759.012 802.682 759.798C803.278 760.584 804.023 761.245 804.875 761.743L825.471 773.779C827.188 774.783 829.234 775.063 831.159 774.559C833.083 774.055 834.729 772.808 835.734 771.092L847.785 750.496C848.285 749.646 848.611 748.705 848.744 747.728C848.877 746.75 848.815 745.756 848.56 744.803ZM845.388 749.097L833.324 769.693C832.898 770.414 832.29 771.01 831.561 771.421C830.831 771.832 830.006 772.043 829.169 772.034C828.331 772.034 827.508 771.809 826.787 771.383L806.19 759.347C805.653 759.033 805.182 758.617 804.806 758.121C804.429 757.625 804.155 757.059 803.998 756.457C803.84 755.855 803.804 755.227 803.89 754.611C803.977 753.994 804.184 753.401 804.501 752.864L816.537 732.268C817.173 731.185 818.212 730.398 819.428 730.081C820.644 729.764 821.936 729.943 823.019 730.578L843.616 742.615C844.16 742.921 844.639 743.333 845.024 743.825C845.409 744.318 845.692 744.881 845.858 745.484C846.024 746.087 846.07 746.716 845.991 747.336C845.913 747.956 845.713 748.555 845.402 749.097H845.388Z"
			fill="#93B4F6" />
		<path
			d="M948.286 343.904C933.923 343.904 926.651 340.012 919.615 336.244C912.579 332.477 905.916 328.889 892.245 328.889C878.575 328.889 871.94 332.463 864.89 336.244C857.84 340.025 850.582 343.904 836.219 343.904C821.855 343.904 814.597 340.012 807.561 336.244C800.525 332.477 793.849 328.889 780.192 328.889C766.535 328.889 759.887 332.463 752.836 336.244C745.786 340.025 738.528 343.904 724.165 343.904C709.802 343.904 702.53 340.012 695.494 336.244C688.458 332.477 681.795 328.889 668.138 328.889C654.481 328.889 647.722 332.407 640.714 336.244C633.705 340.081 626.392 343.904 612.042 343.904C597.693 343.904 590.407 340.012 583.371 336.244C576.335 332.477 569.672 328.889 556.016 328.889C542.359 328.889 535.696 332.407 528.605 336.244C521.513 340.081 514.283 343.904 499.933 343.904C485.584 343.904 478.298 340.012 471.262 336.244C464.226 332.477 457.564 328.889 443.907 328.889C430.25 328.889 423.587 332.463 416.551 336.244C409.515 340.025 402.229 343.904 387.88 343.904C373.53 343.904 366.245 340.012 359.209 336.244C352.172 332.477 345.51 328.889 331.853 328.889C318.196 328.889 311.548 332.463 304.498 336.244C297.448 340.025 290.19 343.904 275.826 343.904C261.463 343.904 254.205 340.012 247.169 336.244C240.133 332.477 233.47 328.889 219.813 328.889C206.156 328.889 199.494 332.463 192.458 336.244C185.422 340.025 178.136 343.904 163.787 343.904V341.133C177.444 341.133 184.106 337.574 191.142 333.793C198.178 330.011 205.45 326.119 219.813 326.119C234.177 326.119 241.435 330.025 248.471 333.793C255.507 337.56 262.169 341.133 275.826 341.133C289.483 341.133 296.146 337.574 303.196 333.793C310.246 330.011 317.504 326.119 331.853 326.119C346.203 326.119 353.488 330.025 360.524 333.793C367.561 337.56 374.223 341.133 387.88 341.133C401.537 341.133 408.199 337.574 415.235 333.793C422.272 330.011 429.557 326.119 443.907 326.119C458.256 326.119 465.542 330.025 472.578 333.793C479.614 337.56 486.276 341.133 499.933 341.133C513.59 341.133 520.239 337.574 527.289 333.793C534.339 330.011 541.597 326.119 555.96 326.119C570.323 326.119 577.581 330.025 584.631 333.793C591.682 337.56 598.33 341.133 611.987 341.133C625.644 341.133 632.348 337.574 639.412 333.793C646.476 330.011 653.72 326.119 668.083 326.119C682.446 326.119 689.718 330.025 696.754 333.793C703.791 337.56 710.453 341.133 724.11 341.133C737.767 341.133 744.429 337.574 751.465 333.793C758.501 330.011 765.787 326.119 780.136 326.119C794.486 326.119 801.772 330.025 808.808 333.793C815.844 337.56 822.506 341.133 836.163 341.133C849.82 341.133 856.483 337.574 863.533 333.793C870.583 330.011 877.841 326.119 892.19 326.119C906.539 326.119 913.825 330.025 920.861 333.793C927.897 337.56 934.56 341.133 948.231 341.133C961.901 341.133 968.536 337.574 975.586 333.793C982.636 330.011 989.894 326.119 1004.26 326.119V328.889C990.6 328.889 983.938 332.463 976.902 336.244C969.866 340.025 962.566 343.904 948.286 343.904Z"
			fill="white" />
		<path
			d="M839.488 473.52C830.748 473.52 823.656 495.293 823.656 522.164C823.656 549.034 830.748 570.794 839.488 570.794C848.228 570.794 855.319 549.021 855.319 522.164C855.319 495.307 848.228 473.52 839.488 473.52ZM839.488 568.024C834.03 568.024 826.426 550.572 826.426 522.164C826.426 493.756 834.03 476.29 839.488 476.29C844.945 476.29 852.549 493.742 852.549 522.164C852.549 550.586 844.945 568.024 839.488 568.024Z"
			fill="white" />
		<path
			d="M535.835 668.249C535.757 668.263 535.677 668.263 535.599 668.249C535.438 668.219 535.285 668.158 535.148 668.069C535.01 667.979 534.892 667.864 534.8 667.729C534.707 667.594 534.642 667.442 534.608 667.282C534.574 667.121 534.572 666.956 534.602 666.795L540.655 635.271C540.686 635.11 540.748 634.956 540.838 634.819C540.929 634.683 541.045 634.565 541.181 634.473C541.316 634.381 541.469 634.316 541.629 634.283C541.79 634.25 541.955 634.249 542.116 634.28C542.277 634.311 542.431 634.373 542.567 634.464C542.704 634.554 542.822 634.67 542.914 634.806C543.006 634.941 543.07 635.094 543.103 635.254C543.137 635.415 543.138 635.58 543.107 635.741L537.068 667.266C537.002 667.545 536.845 667.793 536.622 667.971C536.398 668.15 536.121 668.248 535.835 668.249Z"
			fill="black" />
		<path
			d="M781.244 714.053C780.914 714.053 780.596 713.922 780.363 713.688C780.129 713.454 779.998 713.137 779.998 712.806V698.748C779.979 698.572 779.998 698.395 780.052 698.227C780.107 698.059 780.196 697.904 780.314 697.773C780.433 697.641 780.577 697.536 780.738 697.464C780.9 697.393 781.075 697.355 781.251 697.355C781.428 697.355 781.602 697.393 781.764 697.464C781.925 697.536 782.07 697.641 782.188 697.773C782.306 697.904 782.395 698.059 782.45 698.227C782.505 698.395 782.523 698.572 782.505 698.748V712.806C782.505 712.971 782.472 713.135 782.409 713.287C782.345 713.439 782.252 713.577 782.135 713.693C782.017 713.809 781.878 713.9 781.725 713.962C781.573 714.024 781.409 714.055 781.244 714.053Z"
			fill="black" />
		<path
			d="M771.411 712.101C771.178 712.102 770.949 712.037 770.751 711.915C770.552 711.792 770.392 711.617 770.289 711.408L765.565 701.712C765.493 701.565 765.45 701.405 765.439 701.241C765.428 701.077 765.45 700.912 765.502 700.757C765.555 700.601 765.638 700.458 765.746 700.334C765.854 700.21 765.986 700.109 766.133 700.037C766.281 699.964 766.441 699.921 766.605 699.91C766.769 699.899 766.933 699.921 767.089 699.973C767.245 700.026 767.388 700.109 767.512 700.217C767.635 700.326 767.736 700.457 767.809 700.604L772.532 710.3C772.606 710.447 772.649 710.607 772.661 710.772C772.672 710.936 772.65 711.1 772.598 711.256C772.545 711.412 772.461 711.556 772.353 711.679C772.244 711.803 772.112 711.904 771.964 711.976C771.79 712.055 771.602 712.098 771.411 712.101Z"
			fill="black" />
		<path
			d="M541.292 165.864C530.555 164.466 519.691 164.336 508.923 165.476L508.577 162.706C519.565 161.545 530.652 161.675 541.611 163.094L541.292 165.864Z"
			fill="#274D76" />
		<path
			d="M415.546 446.319L415.403 451.485L412.33 451.4L412.222 455.274L408.272 455.164L408.38 451.29L397.538 450.988L397.682 445.822L408.933 431.374L412.884 431.484L412.474 446.234L415.546 446.319ZM401.939 445.941L408.523 446.124L408.763 437.491L401.939 445.941Z"
			fill="white" />
		<path
			d="M703.546 446.319L703.403 451.485L700.33 451.4L700.222 455.274L696.272 455.164L696.38 451.29L685.538 450.988L685.682 445.822L696.933 431.374L700.884 431.484L700.474 446.234L703.546 446.319ZM689.939 445.941L696.523 446.124L696.763 437.491L689.939 445.941Z"
			fill="white" />
		<path
			d="M550.923 455.048C542.452 455.032 538.438 450.766 538.453 443.015C538.468 435.297 542.498 431.08 550.968 431.096C559.408 431.112 563.453 435.378 563.438 443.063C563.423 450.781 559.363 455.065 550.923 455.048ZM550.932 450.025C555.746 450.034 557.945 447.41 557.954 443.052C557.962 438.728 555.773 436.129 550.959 436.119C546.145 436.11 543.946 438.668 543.938 443.026C543.929 447.417 546.118 450.016 550.932 450.025Z"
			fill="white" />
	</g>
	<defs>
		<clipPath id="clip0_23_864">
			<rect width="1204.43" height="899.725" fill="white" />
		</clipPath>
	</defs>
</svg>