<svg width="98" height="98" viewBox="0 0 98 98" fill="none" xmlns="http://www.w3.org/2000/svg">
  <mask
    id="mask0_1_57"
    style="mask-type: luminance"
    maskUnits="userSpaceOnUse"
    x="0"
    y="0"
    width="98"
    height="98"
  >
    <path d="M98 98H0V-7.62939e-06H98V98Z" fill="white" />
  </mask>
  <g mask="url(#mask0_1_57)">
    <path
      d="M49.0223 0H48.9875C48.7149 0 48.4337 0.0115 48.161 0.0322113C47.8704 0.0540732 47.581 0.0862963 47.2998 0.13002C47.0187 0.173744 46.7281 0.226667 46.4469 0.280746C46.4303 0.289146 46.4123 0.292603 46.3944 0.291107C46.1302 0.355542 45.866 0.430322 45.6027 0.506264C45.1826 0.621787 44.7687 0.768959 44.3634 0.94696H44.3541C43.9413 1.11955 43.5455 1.31286 43.1496 1.52802C43.018 1.60396 42.8863 1.66841 42.7632 1.75816C42.64 1.8479 42.499 1.90888 42.3758 1.98827L42.3673 1.99863C42.2357 2.08493 42.1125 2.17123 41.9912 2.25752C41.87 2.34382 41.7364 2.42897 41.6151 2.52562C41.3951 2.68786 41.1751 2.84895 40.9645 3.02155C40.4498 3.45487 39.9566 3.92524 39.4874 4.42991C39.3464 4.58064 39.2232 4.72102 39.0916 4.8821C39.0041 4.97876 38.9251 5.07655 38.8367 5.18356C38.6788 5.37687 38.5199 5.58169 38.3666 5.7865C38.2134 5.99131 38.0685 6.20532 37.919 6.42049C37.7695 6.63565 37.6285 6.85083 37.4969 7.0775C37.3653 7.30417 37.2242 7.53775 37.0926 7.77708L36.7757 8.35239L36.6704 8.54685C35.3308 11.2922 34.6229 14.43 34.6217 17.6276C34.6171 21.1302 35.4749 24.5531 37.0832 27.4505L48.7149 48.5587L49.0054 49.0754L49.4182 49.829L56.4869 62.6643L71.0023 88.9918C71.0065 89.0035 71.0121 89.0144 71.0192 89.024L71.6962 90.2505C72.7324 92.2228 74.0801 93.9218 75.6602 95.2479C77.2404 96.574 79.021 97.5005 80.8977 97.973C82.7744 98.4454 84.7093 98.4543 86.5889 97.9991C88.4684 97.544 90.2548 96.6339 91.843 95.3224C93.4313 94.0109 94.789 92.3243 95.8374 90.3616C96.8858 88.399 97.6032 86.1999 97.9473 83.8933C98.2924 81.5868 98.2566 79.2194 97.8429 76.9298C97.4292 74.6403 96.646 72.4751 95.5394 70.561L73.068 29.7955C73.0595 29.7851 73.0595 29.7736 73.0501 29.7633L66.8615 18.5308L61.0499 7.98765C61.0235 7.94392 61.0057 7.9117 60.9878 7.87949C60.9727 7.83967 60.952 7.80343 60.9267 7.77248V7.76097C60.7509 7.44915 60.5666 7.14768 60.3813 6.85773C60.3604 6.80411 60.3307 6.75624 60.2939 6.71735C60.1707 6.51254 60.0296 6.30888 59.8895 6.11557C59.6695 5.79224 59.4317 5.48043 59.1863 5.17896L59.1684 5.1571C58.9804 4.92697 58.7988 4.71641 58.6042 4.50124C58.5252 4.4253 58.4463 4.34016 58.3674 4.25386C58.2263 4.09277 58.0768 3.9524 57.9273 3.81202C57.8879 3.76266 57.8436 3.7194 57.7957 3.68315C57.6551 3.54116 57.5085 3.40827 57.3566 3.28503C57.2627 3.18953 57.1627 3.10335 57.0576 3.02729C57.0576 3.01693 57.0482 3.01693 57.0482 3.01693C56.5692 2.62526 56.0734 2.26581 55.5626 1.93995C55.3341 1.80072 55.0971 1.66035 54.8677 1.53148C54.8592 1.53148 54.8593 1.52113 54.8509 1.52113C54.5867 1.38075 54.3319 1.25188 54.0686 1.13336C53.8053 1.01485 53.5233 0.896329 53.2421 0.78817C52.961 0.680011 52.6883 0.594872 52.4157 0.508575C52.143 0.422278 51.8788 0.357839 51.6155 0.293404C51.5834 0.291563 51.5519 0.284087 51.5215 0.271545C51.2488 0.217466 50.9856 0.164534 50.7129 0.132317C50.4402 0.100099 50.1411 0.0563773 49.8506 0.0345154C49.576 0.0115029 49.3044 0 49.0223 0Z"
      fill="url(#paint0_linear_1_57)"
    />
    <g style="mix-blend-mode: multiply" opacity="0.1">
      <path
        d="M49.0223 -9.45522e-06H48.9875C48.7149 -9.45522e-06 48.4337 0.0116108 48.161 0.0323221C47.8705 0.054184 47.581 0.0862863 47.2998 0.13001C47.0187 0.173734 46.7281 0.226773 46.4469 0.280853C46.4303 0.289137 46.4123 0.292708 46.3944 0.291097C46.1302 0.355532 45.866 0.430319 45.6027 0.50626C45.1826 0.621783 44.7687 0.768952 44.3634 0.946954H44.3541C43.9413 1.11955 43.5455 1.31285 43.1496 1.52802C43.018 1.60396 42.8863 1.66851 42.7632 1.75826C42.64 1.84801 42.499 1.90888 42.3758 1.98827L42.3673 1.99863C42.2357 2.08493 42.1125 2.17122 41.9912 2.25752C41.87 2.34381 41.7364 2.42896 41.6151 2.52562C41.3951 2.68785 41.1751 2.84894 40.9645 3.02154C40.4498 3.45498 39.9566 3.92524 39.4874 4.4299C39.3464 4.58063 39.2232 4.72112 39.0916 4.88221C39.0041 4.97886 38.9251 5.07655 38.8367 5.18356C38.6788 5.37687 38.5199 5.58168 38.3666 5.78649C38.2134 5.9913 38.0685 6.20544 37.919 6.4206C37.7695 6.63577 37.6285 6.85082 37.4969 7.0775C37.3653 7.30417 37.2242 7.53774 37.0926 7.77707L36.7757 8.35238L36.6704 8.54685C35.3308 11.2924 34.6229 14.43 34.6217 17.6276C34.6171 21.1302 35.4749 24.5532 37.0832 27.4505L48.7149 48.5587L49.0054 49.0754L49.4182 49.829L56.4869 62.6643L56.7417 61.5667L66.8615 18.5331L61.0499 7.98994C61.0235 7.94622 61.0057 7.914 60.9878 7.88178C60.9727 7.84208 60.952 7.80584 60.9267 7.77488V7.76326C60.7509 7.45144 60.5666 7.14998 60.3813 6.86002C60.3604 6.8064 60.3307 6.75865 60.2939 6.71965C60.1707 6.51483 60.0296 6.31129 59.8895 6.11799C59.6695 5.79466 59.4317 5.48272 59.1863 5.18126L59.1684 5.1594C58.9804 4.92928 58.7988 4.7187 58.6042 4.50354C58.5252 4.42759 58.4463 4.34245 58.3674 4.25616C58.2263 4.09507 58.0768 3.95469 57.9273 3.81431C57.8879 3.76495 57.8436 3.72169 57.7957 3.68544C57.6551 3.54345 57.5085 3.41056 57.3566 3.28732C57.2627 3.19182 57.1627 3.10564 57.0576 3.02959C57.0576 3.01923 57.0482 3.01924 57.0482 3.01924C56.5692 2.62768 56.0734 2.2681 55.5626 1.94236C55.3341 1.80313 55.0971 1.66265 54.8677 1.53378C54.8592 1.53378 54.8593 1.52342 54.8509 1.52342C54.5867 1.38304 54.3319 1.25417 54.0686 1.13566C53.8053 1.01714 53.5233 0.89874 53.2421 0.790581C52.961 0.682422 52.6883 0.597166 52.4157 0.510869C52.143 0.424572 51.8788 0.360246 51.6155 0.295811C51.5834 0.293855 51.5519 0.286495 51.5215 0.273838C51.2488 0.219759 50.9856 0.166828 50.7129 0.13461C50.4402 0.102393 50.1411 0.058784 49.8506 0.036922C49.576 0.0116083 49.3044 -9.45522e-06 49.0223 -9.45522e-06Z"
        fill="black"
      />
    </g>
    <path
      d="M49.0219 0H48.9872C48.7145 0 48.4333 0.0115077 48.1606 0.0322189C47.8701 0.0540808 47.5806 0.0862963 47.2995 0.13002C47.0184 0.173744 46.7277 0.226675 46.4466 0.280754C46.4299 0.289039 46.412 0.292603 46.394 0.291107C46.1298 0.355542 45.8656 0.43033 45.6024 0.506271C44.7612 0.756072 43.9402 1.09804 43.1493 1.52803C42.886 1.66841 42.6303 1.8295 42.3755 1.98023L42.3669 1.99059C42.1121 2.15167 41.8573 2.33577 41.6147 2.51757C41.3947 2.67981 41.1747 2.84089 40.9641 3.01349C40.4495 3.44681 39.9562 3.91719 39.487 4.42185C39.2585 4.66924 39.0469 4.91778 38.8363 5.17552C38.1909 5.97118 37.6083 6.83955 37.0959 7.76903L36.7791 8.34435L36.6738 8.5388L33.4995 14.2839L33.4911 14.2942C33.4911 14.3057 33.4827 14.3057 33.4827 14.3161C33.4827 14.3265 33.4733 14.3265 33.4733 14.338H33.4648C33.4516 14.3583 33.4396 14.3798 33.4291 14.4024L22.3342 34.5326L21.0245 36.9098L2.46515 70.553C0.848958 73.481 -0.00878045 76.9369 0.00379851 80.4702C0.0163775 84.0037 0.898702 87.4504 2.53568 90.361C2.59679 90.468 2.64945 90.5543 2.69364 90.6187C3.96515 92.8137 5.63332 94.62 7.56839 95.8973C9.50344 97.1745 11.6533 97.8882 13.8505 97.9827H15.2307C17.439 97.8188 19.5869 97.0348 21.5078 95.6915C23.4287 94.3482 25.0711 92.4817 26.3077 90.2367L37.157 70.5472L37.5614 69.8154L43.1182 59.7451L43.9795 58.1745C43.9881 58.1505 44.0001 58.1287 44.0151 58.1101L49.0088 49.0616L49.052 48.9868L60.93 27.447C62.5153 24.5671 63.3701 21.1783 63.3869 17.706C63.4036 14.2336 62.5815 10.8326 61.0241 7.93011C60.9884 7.86568 60.9535 7.80124 60.93 7.74716C60.7542 7.43534 60.57 7.13388 60.3848 6.84393C60.2268 6.58503 60.0688 6.33765 59.893 6.10178C59.673 5.77845 59.4351 5.46663 59.1897 5.16516L59.1718 5.1433C58.917 4.83148 58.6528 4.53002 58.3717 4.24006C58.2307 4.07897 58.0812 3.93859 57.9317 3.79822C57.8923 3.74874 57.848 3.70547 57.8 3.66934C57.6594 3.52724 57.5129 3.39446 57.361 3.27122C57.262 3.17538 57.1591 3.08587 57.0526 3.00314C56.3556 2.43024 55.6205 1.92983 54.8551 1.50732C54.5909 1.36695 54.3361 1.23807 54.0729 1.11956C53.8097 1.00105 53.5275 0.882527 53.2464 0.774368C52.9653 0.666209 52.6927 0.581071 52.42 0.494774C52.1473 0.408477 51.883 0.344037 51.6198 0.279602C51.5878 0.277646 51.5562 0.270286 51.5258 0.257744C51.2532 0.203664 50.9898 0.150733 50.7172 0.118515C50.4445 0.0862975 50.1455 0.0425757 49.855 0.0207138C49.5757 0.0115088 49.304 0 49.0219 0Z"
      fill="url(#paint1_linear_1_57)"
    />
    <g style="mix-blend-mode: multiply" opacity="0.1">
      <path
        d="M22.3305 34.5372L21.0208 36.9144L2.46148 70.5576C0.845296 73.4856 -0.0124425 76.9416 0.000136397 80.4749C0.0127154 84.0083 0.895011 87.455 2.53198 90.3656C2.5931 90.4726 2.64578 90.5589 2.68997 90.6234C3.96148 92.8183 5.62966 94.6247 7.56474 95.9019C9.49978 97.1792 11.6496 97.8928 13.8469 97.9874H15.2271C17.4354 97.8234 19.5833 97.0394 21.5042 95.6961C23.4251 94.3529 25.0674 92.4864 26.304 90.2414L37.1534 70.5518L37.5577 69.82L43.1145 59.7497L22.7706 35.078L22.3305 34.5372Z"
        fill="black"
      />
    </g>
    <path
      d="M21.0208 36.919L2.46149 70.5623C0.845296 73.4902 -0.0124425 76.9462 0.000136397 80.4795C0.0127154 84.0129 0.895011 87.4596 2.53198 90.3702C2.5931 90.4773 2.64578 90.5636 2.68997 90.628C3.96148 92.8229 5.62966 94.6293 7.56474 95.9065C9.49978 97.1838 11.6496 97.8974 13.8469 97.992H51.7036L37.5577 69.8269L24.3615 43.565C24.353 43.5535 24.3531 43.5433 24.3437 43.5329L21.3903 37.6577L21.0208 36.919Z"
      fill="url(#paint2_linear_1_57)"
    />
    <g style="mix-blend-mode: screen" opacity="0.6">
      <path
        d="M59.1678 5.15375L59.8532 6.26181C60.0879 6.61494 60.3052 6.98498 60.5039 7.36986L61.0755 8.5435C61.2639 8.93321 61.4285 9.33927 61.5682 9.75856C61.7339 10.1647 61.8747 10.5855 61.9895 11.0173L62.3242 12.298C62.4295 12.7283 62.4821 13.169 62.5705 13.6109C62.649 14.0431 62.7019 14.482 62.7285 14.9237C62.776 15.3659 62.8024 15.8112 62.8075 16.2573C62.8075 16.7095 62.8338 17.1502 62.8075 17.592L62.7285 18.9256L62.5611 20.2385C62.4256 21.1108 62.2494 21.9728 62.0336 22.8205C61.9199 23.2405 61.8052 23.6593 61.6641 24.0689C61.5419 24.4555 61.3924 24.8536 61.2514 25.1977C59.747 27.8775 58.2426 30.578 56.7768 33.2785C55.2997 35.9997 53.8225 38.7221 52.3802 41.4767C50.9379 44.2313 49.4965 46.9848 48.0984 49.7612C47.3866 51.1489 46.7012 52.5584 46.0148 53.9576C45.3378 55.3383 44.6609 56.7191 44.0112 58.1205L60.926 27.4575C62.7915 24.0668 63.6361 19.9883 63.3154 15.9197C62.9947 11.8511 61.5284 8.04539 59.1678 5.15375Z"
        fill="white"
      />
    </g>
    <g style="mix-blend-mode: screen" opacity="0.6">
      <path
        d="M73.0676 29.7919C73.9562 31.664 74.8879 33.4936 75.8018 35.3334C76.7158 37.1733 77.6569 39.0339 78.5981 40.8633C80.488 44.5315 82.3998 48.1824 84.3336 51.816C86.2507 55.4635 88.229 59.0571 90.18 62.6712C92.1545 66.2381 94.1187 69.8257 96.1148 73.3719L96.458 74.6848C96.5718 75.1692 96.7213 75.6422 96.8097 76.1266L97.0645 77.6006C97.1613 78.0843 97.2243 78.5774 97.2525 79.0744L97.3578 80.5703C97.3757 81.0651 97.3409 81.5597 97.3315 82.066L97.323 82.8197L97.2346 83.5516C97.1895 84.0505 97.1228 84.5461 97.0325 85.0358L96.7166 86.489L96.2643 87.8917C96.1148 88.3658 95.9042 88.8064 95.7284 89.2586C95.5366 89.7057 95.325 90.1401 95.0956 90.56C94.8756 91.0007 94.6029 91.3885 94.366 91.7969C94.1018 92.195 93.829 92.5828 93.5394 92.9591C92.9669 93.7089 92.3372 94.3901 91.6589 94.9934C94.8201 92.3815 97.0043 88.3403 97.7311 83.7582C98.4579 79.1761 97.6681 74.4283 95.5356 70.5586L73.0676 29.7919Z"
        fill="white"
      />
    </g>
    <g style="mix-blend-mode: screen" opacity="0.6">
      <path
        d="M24.3618 43.5639C25.3904 45.8985 26.4716 48.2009 27.536 50.5136C28.0804 51.6643 28.5994 52.8379 29.1617 53.9782L30.8061 57.4301L34.1026 64.3258L37.461 71.1904L40.8554 78.0113L44.2749 84.8115L47.7389 91.5898C48.7327 93.516 49.7086 95.4306 50.7193 97.343L42.6578 97.5582C39.7036 97.7089 36.7494 97.7952 33.7867 97.9885H51.7038L37.558 69.8269L24.3618 43.5639Z"
        fill="white"
      />
    </g>
    <g style="mix-blend-mode: multiply" opacity="0.3">
      <path
        d="M33.4789 14.3208C33.4695 14.3208 33.4695 14.331 33.4611 14.3425C33.4479 14.3629 33.436 14.3844 33.4253 14.407L22.3305 34.5372L21.0208 36.9144L2.46149 70.5577C0.845296 73.4856 -0.0124425 76.9416 0.000136397 80.4749C0.0127154 84.0083 0.895011 87.455 2.53198 90.3657C2.5931 90.4727 2.64578 90.559 2.68997 90.6234C2.73416 90.6878 2.76895 90.7316 2.79528 90.7638C2.21457 89.7324 1.73636 88.6199 1.37081 87.45C0.937911 86.0979 0.645722 84.6846 0.5011 83.2432C0.313015 81.395 0.384243 79.5208 0.711713 77.7018C1.07616 75.5521 1.72971 73.4913 2.64576 71.6036C2.75107 71.3735 2.88365 71.0558 2.97956 70.8717L3.41113 70.1192C3.70073 69.6129 3.99126 69.1078 4.29026 68.5911C4.87884 67.5556 5.47683 66.4935 6.09268 65.4177C8.5373 61.1247 11.1032 56.4981 13.671 51.8714C14.9459 49.5483 16.2096 47.224 17.4601 44.9435C18.6993 42.6422 19.9217 40.3916 21.0998 38.1973C21.1938 38.0144 21.2935 37.8314 21.3903 37.6588C21.8557 36.7878 22.3221 35.933 22.7706 35.077C24.4846 31.8713 26.067 28.8636 27.4652 26.1688C29.3109 22.6398 30.7974 19.6481 31.8608 17.5827C32.7662 15.7417 33.3379 14.6027 33.4695 14.345C33.4695 14.331 33.4789 14.3312 33.4789 14.3208Z"
        fill="black"
      />
    </g>
    <g style="mix-blend-mode: multiply" opacity="0.3">
      <path
        d="M49.064 49.0292C49.0988 49.1155 49.222 49.3952 49.4157 49.8256L56.4844 62.6608L70.9998 88.9883C70.8672 88.6868 69.7334 86.1048 67.9403 82.4792C66.9907 80.5312 65.8567 78.2931 64.6165 75.9056C63.9837 74.7216 63.3594 73.4894 62.6824 72.2467C62.0055 71.004 61.3286 69.7613 60.6516 68.5025C59.3353 66.1254 58.0141 63.7688 56.7392 61.563C56.6781 61.4479 56.6076 61.333 56.5455 61.2179C55.2094 58.9052 53.944 56.7741 52.8354 54.9561C50.7716 51.5572 49.2521 49.2985 49.064 49.0292Z"
        fill="black"
      />
    </g>
  </g>
  <defs>
    <linearGradient
      id="paint0_linear_1_57"
      x1="-750.54"
      y1="361.476"
      x2="-677.12"
      y2="330.699"
      gradientUnits="userSpaceOnUse"
    >
      <stop stop-color="#C33764" />
      <stop offset="1" stop-color="#1D2671" />
    </linearGradient>
    <linearGradient
      id="paint1_linear_1_57"
      x1="-687.39"
      y1="322.951"
      x2="-727.801"
      y2="297.889"
      gradientUnits="userSpaceOnUse"
    >
      <stop stop-color="#6619AA" />
      <stop offset="0.162" stop-color="#914CCD" />
      <stop offset="0.307" stop-color="#6D3581" />
      <stop offset="0.446" stop-color="#4F2D6B" />
      <stop offset="0.581" stop-color="#964C9A" />
      <stop offset="0.712" stop-color="#FA6800" />
      <stop offset="0.842" stop-color="#6B339C" />
      <stop offset="0.967" stop-color="#F81000" />
      <stop offset="1" stop-color="#6B339C" />
    </linearGradient>
    <linearGradient
      id="paint2_linear_1_57"
      x1="-754.097"
      y1="276.386"
      x2="-704.151"
      y2="276.386"
      gradientUnits="userSpaceOnUse"
    >
      <stop stop-color="#5E4027" />
      <stop offset="0.5" stop-color="#9D2571" />
      <stop offset="1" stop-color="#8D131A" />
    </linearGradient>
  </defs>
</svg>
